<svg width="50" height="71" viewBox="0 0 50 71" fill="none" xmlns="http://www.w3.org/2000/svg">
<path d="M34.2105 0H32.8947H5.26316C2.36842 0 0 2.36667 0 5.25926V65.7407C0 68.6333 2.36842 71 5.26316 71H44.7368C47.6316 71 50 68.6333 50 65.7407V18.4074L34.2105 0ZM34.2105 3.94444L46.5789 18.4074H36.8421C35.5263 18.4074 34.2105 17.0926 34.2105 15.7778V3.94444ZM47.3684 65.7407C47.3684 67.0556 46.3158 68.3704 44.7368 68.3704H5.26316C3.94737 68.3704 2.63158 67.3185 2.63158 65.7407V5.25926C2.63158 3.94444 3.68421 2.62963 5.26316 2.62963H31.5789V15.7778C31.5789 18.6704 33.9474 21.037 36.8421 21.037H47.3684V65.7407Z" fill="#666666"/>
<path d="M7.89453 7.88889V13.1482H10.5261V10.5185H13.1577V21.037H15.7893V10.5185H18.4208V13.1482H21.0524V7.88889H7.89453Z" fill="#E44331"/>
<path d="M42.1051 34.1852H7.89453V36.8148H42.1051V34.1852Z" fill="#E44331"/>
<path d="M42.1051 26.2963H7.89453V28.9259H42.1051V26.2963Z" fill="#666666"/>
<path d="M42.1051 42.0741H7.89453V44.7037H42.1051V42.0741Z" fill="#666666"/>
<path d="M42.1051 49.963H7.89453V52.5926H42.1051V49.963Z" fill="#E44331"/>
<path d="M42.1051 57.8518H7.89453V60.4815H42.1051V57.8518Z" fill="#666666"/>
</svg>
