<svg width="71" height="71" viewBox="0 0 71 71" fill="none" xmlns="http://www.w3.org/2000/svg">
<path d="M33.457 34.886H7.45703V37.5156H33.457V34.886Z" fill="#E44331"/>
<path d="M41.6676 26.9971H7.45703V29.6268H41.6676V26.9971Z" fill="#666666"/>
<path d="M47.1585 65.7407C47.1585 67.0556 46.1105 68.3704 44.5386 68.3704H5.23984C3.92988 68.3704 2.61992 67.3185 2.61992 65.7407V5.25926C2.61992 3.94444 3.66789 2.62963 5.23984 2.62963H31.439V15.7778C31.439 18.6704 33.7969 21.037 36.6788 21.037H47.1585L49.7784 18.4074L34.0589 0H5.23984C2.35793 0 0 2.36667 0 5.25926V65.7407C0 68.6333 2.35793 71 5.23984 71H44.5386C47.4205 71 49.7784 68.6333 49.7784 65.7407V39.4444L47.1585 42.0741V65.7407ZM34.0589 3.94444L46.3725 18.4074H36.6788C35.3689 18.4074 34.0589 17.0926 34.0589 15.7778V3.94444Z" fill="#666666"/>
<path d="M69.4285 12.0963L66.2846 8.94075C64.1886 6.83704 61.0447 6.83704 58.9488 8.94075L49.5171 18.4074L46.8972 21.037L20.698 47.3333L18.0781 60.4815L31.1777 57.8518L46.8972 42.0741L49.5171 39.4444L69.4285 19.4593C71.5244 17.6185 71.5244 14.2 69.4285 12.0963ZM21.484 57.063L23.056 48.9111L29.6058 55.4852L21.484 57.063ZM31.7017 53.9074L24.8899 47.0704L54.4949 17.3556L61.3067 24.1926L31.7017 53.9074ZM67.5945 17.6185L63.1407 22.0889L56.3289 15.2519L60.7827 10.7815C61.8307 9.72963 63.4027 9.72963 64.4506 10.7815L67.5945 13.937C68.6425 14.9889 68.6425 16.5667 67.5945 17.6185Z" fill="#E44331"/>
</svg>
