<svg width="35" height="35" viewBox="0 0 35 35" fill="none" xmlns="http://www.w3.org/2000/svg">
<g clip-path="url(#clip0)">
<path fill-rule="evenodd" clip-rule="evenodd" d="M22.2846 23.0688H0.800796C0.587138 23.0661 0.383325 22.9801 0.234107 22.8295C0.0848898 22.679 0.00248759 22.4762 0.00499964 22.2659V0.802646C0.00403392 0.699069 0.0238985 0.5963 0.0634334 0.500307C0.102968 0.404314 0.161385 0.317004 0.235352 0.243331C0.309318 0.169658 0.39735 0.111094 0.494394 0.0710503C0.591438 0.031007 0.695572 0.0102464 0.800796 0.00997925H22.2846C22.3898 0.0102464 22.4939 0.031007 22.591 0.0710503C22.688 0.111094 22.776 0.169658 22.85 0.243331C22.924 0.317004 22.9824 0.404314 23.022 0.500307C23.0615 0.5963 23.0814 0.699069 23.0804 0.802646V22.2659C23.0829 22.4762 23.0005 22.679 22.8513 22.8295C22.702 22.9801 22.4982 23.0661 22.2846 23.0688ZM1.59663 21.4733H21.4888V1.59531H1.59452V21.4733H1.59663Z" fill="#666666"/>
<path fill-rule="evenodd" clip-rule="evenodd" d="M34.222 34.9898H12.7361C12.6309 34.9895 12.5268 34.9687 12.4297 34.9287C12.3327 34.8886 12.2446 34.8301 12.1707 34.7564C12.0967 34.6827 12.0383 34.5954 11.9987 34.4994C11.9592 34.4034 11.9393 34.3007 11.9403 34.1971V12.7339C11.9378 12.5236 12.0202 12.3208 12.1694 12.1703C12.3186 12.0197 12.5224 11.9336 12.7361 11.9309H34.222C34.4356 11.9336 34.6394 12.0197 34.7887 12.1703C34.9379 12.3208 35.0203 12.5236 35.0178 12.7339V34.1971C35.0187 34.3007 34.9989 34.4034 34.9594 34.4994C34.9198 34.5954 34.8614 34.6827 34.7874 34.7564C34.7134 34.8301 34.6254 34.8886 34.5284 34.9287C34.4313 34.9687 34.3272 34.9895 34.222 34.9898ZM13.534 33.4044H33.4261V13.5265H13.5319V33.4044H13.534Z" fill="#E44331"/>
</g>
<defs>
<clipPath id="clip0">
<rect width="35" height="35" fill="white"/>
</clipPath>
</defs>
</svg>
