<svg width="30" height="35" viewBox="0 0 30 35" fill="none" xmlns="http://www.w3.org/2000/svg">
<g clip-path="url(#clip0)">
<path fill-rule="evenodd" clip-rule="evenodd" d="M29.9899 24.9063L27.8826 17.6585C27.737 17.1734 27.4285 16.7467 27.0039 16.4433C26.5794 16.1399 26.062 15.9764 25.5306 15.9776H19.7627C19.8024 13.592 20.6473 11.2814 22.1733 9.38536C22.5461 9.23171 22.8684 8.98552 23.1063 8.67271C23.3442 8.3599 23.4888 7.99202 23.525 7.60778V3.04295C23.525 0.952213 19.3196 0 15.4113 0C11.503 0 7.29763 0.952213 7.29763 3.04295V7.60975C7.32613 7.96944 7.45338 8.31578 7.66674 8.61429C7.88009 8.91281 8.17209 9.1531 8.51369 9.31123C9.85731 11.3152 10.6455 13.609 10.805 15.9795H5.18825C4.69124 15.9789 4.2059 16.1223 3.79714 16.3906C3.38839 16.6589 3.07574 17.0394 2.90107 17.481L0.0433062 24.8488C0.0113398 24.9319 -0.00500963 25.0198 -0.00500488 25.1083V29.6742C0.00124553 30.4858 0.346383 31.2619 0.954755 31.8324C1.56313 32.4028 2.38505 32.7209 3.24025 32.717H26.7703C27.626 32.7212 28.4487 32.4033 29.0579 31.833C29.6672 31.2626 30.0133 30.4863 30.0207 29.6742V25.1083C30.0209 25.0399 30.0105 24.9719 29.9899 24.9063ZM8.91668 7.321V4.9629C13.1 6.46144 17.7154 6.46144 21.8988 4.9629V7.47708C21.6301 7.70011 21.3748 7.93726 21.134 8.18735C17.4196 9.44929 13.3581 9.44372 9.64756 8.17169C9.42552 7.87998 9.17983 7.59707 8.91975 7.31707L8.91668 7.321ZM15.4083 1.52195C19.6671 1.52195 21.8988 2.65173 21.8988 3.04295C21.8988 3.43416 19.6671 4.56489 15.4083 4.56489C11.1494 4.56489 8.91668 3.43416 8.91668 3.04295C8.91668 2.65173 11.1515 1.52195 15.4134 1.52195H15.4083ZM15.4083 10.6517C16.824 10.6587 18.2366 10.5246 19.6229 10.2517C17.0458 14.9824 18.4284 21.2439 18.6484 22.1473C18.6129 22.9428 18.2545 23.6944 17.6481 24.2447C17.0418 24.7949 16.2346 25.1011 15.3957 25.0991C14.5568 25.0971 13.7513 24.787 13.1479 24.2339C12.5445 23.6807 12.19 22.9274 12.1589 22.1317C12.3233 21.3102 13.4098 15.239 10.8996 10.1873C12.3804 10.5057 13.895 10.6616 15.4134 10.6517H15.4083ZM28.3934 29.6761C28.3899 30.0824 28.2167 30.4707 27.9118 30.7558C27.6069 31.041 27.1953 31.1997 26.7672 31.1971H3.23717C2.80967 31.1991 2.39877 31.0401 2.09465 30.755C1.79053 30.4698 1.61804 30.0819 1.61505 29.6761V25.8712H4.04924C4.26189 25.8712 4.46587 25.7911 4.61624 25.6483C4.76661 25.5056 4.85108 25.312 4.85108 25.1102C4.85108 24.9084 4.76661 24.7149 4.61624 24.5722C4.46587 24.4294 4.26189 24.3493 4.04924 24.3493H1.96151L4.42343 18.0078C4.48157 17.8606 4.58567 17.7337 4.72177 17.6441C4.85787 17.5545 5.01954 17.5064 5.18518 17.5063H10.8924C10.9315 18.9851 10.8186 20.4639 10.5552 21.9219C10.545 21.9711 10.5398 22.0211 10.5398 22.0712C10.5398 23.2966 11.0527 24.4719 11.9657 25.3384C12.8787 26.2049 14.1171 26.6917 15.4083 26.6917C16.6994 26.6917 17.9377 26.2049 18.8507 25.3384C19.7637 24.4719 20.2766 23.2966 20.2766 22.0712C20.2765 22.0107 20.2686 21.9504 20.253 21.8917C19.9247 20.4484 19.7478 18.9779 19.7246 17.5015H25.5275C25.7047 17.5009 25.8772 17.5555 26.0186 17.6568C26.1601 17.7581 26.2627 17.9005 26.3108 18.0624L28.1364 24.3483H26.7672C26.5546 24.3483 26.3506 24.4285 26.2002 24.5712C26.0498 24.7139 25.9654 24.9074 25.9654 25.1093C25.9654 25.3111 26.0498 25.5046 26.2002 25.6473C26.3506 25.79 26.5546 25.8703 26.7672 25.8703H28.3934V29.6751V29.6761Z" fill="#666666"/>
<path fill-rule="evenodd" clip-rule="evenodd" d="M24.3359 33.4761H6.48542C6.37778 33.4724 6.27041 33.4894 6.16983 33.526C6.06925 33.5626 5.97749 33.618 5.89998 33.689C5.82246 33.76 5.76082 33.845 5.71872 33.9391C5.67661 34.0332 5.65491 34.1344 5.65491 34.2366C5.65491 34.3389 5.67661 34.44 5.71872 34.5341C5.76082 34.6282 5.82246 34.7132 5.89998 34.7842C5.97749 34.8552 6.06925 34.9106 6.16983 34.9472C6.27041 34.9838 6.37778 35.0008 6.48542 34.9971H24.3359C24.4436 35.0008 24.5509 34.9838 24.6515 34.9472C24.7521 34.9106 24.8438 34.8552 24.9213 34.7842C24.9988 34.7132 25.0605 34.6282 25.1026 34.5341C25.1448 34.44 25.1665 34.3389 25.1665 34.2366C25.1665 34.1344 25.1448 34.0332 25.1026 33.9391C25.0605 33.845 24.9988 33.76 24.9213 33.689C24.8438 33.618 24.7521 33.5626 24.6515 33.526C24.5509 33.4894 24.4436 33.4724 24.3359 33.4761Z" fill="#E44331"/>
</g>
<defs>
<clipPath id="clip0">
<rect width="30" height="35" fill="white"/>
</clipPath>
</defs>
</svg>
