<svg width="35" height="35" viewBox="0 0 35 35" fill="none" xmlns="http://www.w3.org/2000/svg">
<g clip-path="url(#clip0)">
<path fill-rule="evenodd" clip-rule="evenodd" d="M32.72 35.0029H2.28008C1.66776 34.9952 1.08359 34.7504 0.656056 34.3223C0.22852 33.8942 -0.00742346 33.3179 5.02173e-05 32.72V2.28296C-0.00742346 1.68506 0.22852 1.1087 0.656056 0.680609C1.08359 0.25252 1.66776 0.00772102 2.28008 0H32.72C33.3323 0.00772102 33.9165 0.25252 34.344 0.680609C34.7716 1.1087 35.0075 1.68506 35 2.28296V32.72C35.0075 33.3179 34.7716 33.8942 34.344 34.3223C33.9165 34.7504 33.3323 34.9952 32.72 35.0029ZM2.28008 1.52231C2.07603 1.52489 1.88132 1.6064 1.73882 1.74902C1.59632 1.89165 1.51767 2.08372 1.52007 2.28296V32.72C1.51767 32.9192 1.59632 33.1113 1.73882 33.2539C1.88132 33.3965 2.07603 33.4781 2.28008 33.4807H32.72C32.9241 33.4781 33.1188 33.3965 33.2613 33.2539C33.4038 33.1113 33.4824 32.9192 33.48 32.72V2.28296C33.4824 2.08372 33.4038 1.89165 33.2613 1.74902C33.1188 1.6064 32.9241 1.52489 32.72 1.52231H2.28008Z" fill="#666666"/>
<path fill-rule="evenodd" clip-rule="evenodd" d="M3.8001 4.94578C3.56812 4.94946 3.34016 4.88568 3.14544 4.76251C2.95071 4.63934 2.79799 4.46237 2.7066 4.25414C2.6152 4.04592 2.58932 3.81583 2.63225 3.5932C2.67519 3.37057 2.78498 3.16545 2.94768 3.00395C3.11039 2.84245 3.31868 2.73187 3.54595 2.6863C3.77322 2.64073 4.00921 2.66222 4.22393 2.74804C4.43865 2.83386 4.62233 2.98017 4.75164 3.16827C4.88095 3.35636 4.94997 3.57775 4.95 3.8043C4.95185 3.95314 4.92353 4.10085 4.86663 4.23894C4.80973 4.37704 4.72537 4.50275 4.61846 4.60887C4.51155 4.71498 4.3843 4.79939 4.24383 4.85721C4.10335 4.91503 3.95254 4.94514 3.8001 4.94578ZM3.8001 3.42448C3.72253 3.42253 3.64608 3.44321 3.58062 3.4839C3.51516 3.52459 3.46358 3.58341 3.43255 3.65286C3.40152 3.72231 3.39244 3.79926 3.40642 3.87379C3.42041 3.94832 3.45681 4.01703 3.51104 4.07123C3.56526 4.12544 3.63489 4.16264 3.71087 4.17803C3.78685 4.19343 3.86572 4.18632 3.93755 4.15765C4.00938 4.12899 4.07087 4.08007 4.11407 4.01712C4.15726 3.95417 4.18028 3.88007 4.18011 3.8043C4.18077 3.75497 4.17139 3.70599 4.15264 3.66019C4.13389 3.61438 4.10603 3.57264 4.07073 3.53736C4.03543 3.50207 3.99341 3.47395 3.94695 3.45457C3.9005 3.4352 3.85061 3.42499 3.8001 3.42448Z" fill="#666666"/>
<path fill-rule="evenodd" clip-rule="evenodd" d="M6.84997 4.94577C6.61762 4.9514 6.38889 4.88929 6.19287 4.76733C5.99685 4.64538 5.84245 4.46912 5.74951 4.26111C5.65657 4.05309 5.62924 3.82271 5.67102 3.59945C5.7128 3.37619 5.82185 3.17018 5.98413 3.0077C6.1464 2.84522 6.35451 2.73363 6.58203 2.68724C6.80955 2.64085 7.04605 2.66176 7.26135 2.74726C7.47665 2.83276 7.66099 2.97903 7.79077 3.1673C7.92055 3.35558 7.98992 3.57733 7.98999 3.80429C7.99372 4.10324 7.87575 4.39142 7.66198 4.60546C7.44822 4.81951 7.15613 4.94191 6.84997 4.94577ZM6.84997 3.42447C6.7724 3.42253 6.69607 3.4432 6.63061 3.48389C6.56515 3.52458 6.51357 3.5834 6.48254 3.65285C6.45151 3.7223 6.44244 3.79925 6.45642 3.87378C6.4704 3.94831 6.50681 4.01703 6.56103 4.07123C6.61526 4.12543 6.68476 4.16263 6.76074 4.17803C6.83672 4.19342 6.91572 4.18631 6.98755 4.15764C7.05938 4.12898 7.12087 4.08006 7.16406 4.01711C7.20725 3.95416 7.23015 3.88006 7.22998 3.80429C7.23064 3.75496 7.22139 3.70598 7.20263 3.66018C7.18388 3.61438 7.15602 3.57263 7.12072 3.53735C7.08542 3.50206 7.04328 3.47394 6.99682 3.45457C6.95037 3.43519 6.90049 3.42498 6.84997 3.42447Z" fill="#666666"/>
<path fill-rule="evenodd" clip-rule="evenodd" d="M9.89001 4.94577C9.65766 4.9514 9.4288 4.88929 9.23279 4.76733C9.03677 4.64538 8.88249 4.46912 8.78955 4.26111C8.69661 4.05309 8.66928 3.82271 8.71106 3.59945C8.75283 3.37619 8.86177 3.17018 9.02405 3.0077C9.18632 2.84522 9.39455 2.73363 9.62207 2.68724C9.84959 2.64085 10.0861 2.66176 10.3014 2.74726C10.5167 2.83276 10.701 2.97903 10.8308 3.1673C10.9606 3.35558 11.03 3.57733 11.03 3.80429C11.0338 4.10324 10.9158 4.39142 10.702 4.60546C10.4883 4.81951 10.1962 4.94191 9.89001 4.94577ZM9.89001 3.42447C9.81244 3.42253 9.73599 3.4432 9.67053 3.48389C9.60507 3.52458 9.55361 3.5834 9.52258 3.65285C9.49155 3.7223 9.48235 3.79925 9.49634 3.87378C9.51032 3.94831 9.54685 4.01703 9.60107 4.07123C9.6553 4.12543 9.7248 4.16263 9.80078 4.17803C9.87676 4.19342 9.95575 4.18631 10.0276 4.15764C10.0994 4.12898 10.1608 4.08006 10.204 4.01711C10.2472 3.95416 10.2702 3.88006 10.27 3.80429C10.2707 3.75496 10.2613 3.70598 10.2426 3.66018C10.2238 3.61438 10.1961 3.57263 10.1608 3.53735C10.1255 3.50206 10.0833 3.47394 10.0369 3.45457C9.99041 3.43519 9.94053 3.42498 9.89001 3.42447Z" fill="#666666"/>
<path fill-rule="evenodd" clip-rule="evenodd" d="M34.24 7.60953H0.76001V6.08722H34.24V7.60953Z" fill="#666666"/>
<path fill-rule="evenodd" clip-rule="evenodd" d="M22.0699 28.1541H12.93C12.3182 28.1448 11.7349 27.8995 11.3077 27.4718C10.8805 27.044 10.6441 26.4686 10.65 25.8711V18.2597H24.35V25.876C24.3545 26.4726 24.1175 27.0468 23.6904 27.4735C23.2634 27.9002 22.6809 28.1448 22.0699 28.1541ZM12.17 19.7839V25.876C12.1676 26.0754 12.2463 26.2675 12.3888 26.4103C12.5313 26.553 12.7259 26.6349 12.93 26.6377H22.0699C22.2741 26.6349 22.4687 26.553 22.6112 26.4103C22.7537 26.2675 22.8323 26.0754 22.8299 25.876V19.7888H12.17V19.7839Z" fill="#E44331"/>
<path fill-rule="evenodd" clip-rule="evenodd" d="M24.35 18.2597H22.83C22.8437 17.5677 22.7161 16.88 22.4544 16.2369C22.1927 15.5937 21.8023 15.0079 21.306 14.5138C20.8097 14.0197 20.2175 13.6272 19.564 13.3593C18.9105 13.0914 18.2088 12.9534 17.5 12.9534C16.7913 12.9534 16.0896 13.0914 15.4361 13.3593C14.7826 13.6272 14.1904 14.0197 13.6941 14.5138C13.1978 15.0079 12.8074 15.5937 12.5457 16.2369C12.284 16.88 12.1564 17.5677 12.1701 18.2597H10.6501C10.628 17.3677 10.7888 16.4804 11.1231 15.6501C11.4574 14.8197 11.9585 14.063 12.5967 13.4245C13.235 12.786 13.9977 12.2786 14.8398 11.9322C15.6818 11.5858 16.5863 11.4073 17.5 11.4073C18.4138 11.4073 19.3183 11.5858 20.1603 11.9322C21.0024 12.2786 21.7651 12.786 22.4034 13.4245C23.0416 14.063 23.5427 14.8197 23.877 15.6501C24.2113 16.4804 24.3721 17.3677 24.35 18.2597Z" fill="#E44331"/>
<path fill-rule="evenodd" clip-rule="evenodd" d="M17.5001 24.3498C17.296 24.3473 17.1013 24.2657 16.9588 24.1231C16.8163 23.9804 16.7376 23.7884 16.74 23.5892V22.0678C16.74 21.871 16.8202 21.6823 16.9627 21.5431C17.1052 21.404 17.2985 21.3258 17.5001 21.3258C17.7016 21.3258 17.8949 21.404 18.0374 21.5431C18.1799 21.6823 18.2601 21.871 18.2601 22.0678V23.5901C18.2622 23.7892 18.1834 23.981 18.0409 24.1234C17.8985 24.2658 17.7039 24.3473 17.5001 24.3498Z" fill="#E44331"/>
</g>
<defs>
<clipPath id="clip0">
<rect width="35" height="35" fill="white"/>
</clipPath>
</defs>
</svg>
