<svg width="29" height="35" viewBox="0 0 29 35" fill="none" xmlns="http://www.w3.org/2000/svg">
<g clip-path="url(#clip0)">
<path fill-rule="evenodd" clip-rule="evenodd" d="M19.8417 34.9998H2.28718C1.67277 34.9916 1.08679 34.7462 0.657977 34.3178C0.229165 33.8894 -0.00744888 33.3128 5.09286e-05 32.7147V2.27517C-0.00744888 1.67702 0.229165 1.10038 0.657977 0.671928C1.08679 0.243481 1.67277 -0.00171373 2.28718 -0.00994873H26.713C27.3274 -0.00171373 27.9133 0.243481 28.3422 0.671928C28.771 1.10038 29.0076 1.67702 29.0001 2.27517V28.1541C29.0015 28.2732 28.974 28.391 28.92 28.4979C28.866 28.6048 28.7869 28.6977 28.6891 28.7693L20.293 34.8533C20.1632 34.9491 20.0046 35.0007 19.8417 34.9998ZM2.28718 1.51343C2.0824 1.51626 1.88715 1.59808 1.74423 1.74088C1.60132 1.88368 1.52239 2.07581 1.5248 2.27517V32.7147C1.52239 32.914 1.60132 33.1062 1.74423 33.249C1.88715 33.3918 2.0824 33.4735 2.28718 33.4763H19.6009L27.4753 27.7634V2.27517C27.4777 2.07581 27.3988 1.88368 27.2559 1.74088C27.113 1.59808 26.9177 1.51626 26.713 1.51343H2.28718Z" fill="#666666"/>
<path fill-rule="evenodd" clip-rule="evenodd" d="M19.0793 34.2382C18.8745 34.2354 18.6792 34.1537 18.5363 34.0109C18.3934 33.8681 18.3145 33.6758 18.3169 33.4765V28.1543C18.3145 27.9549 18.3934 27.7628 18.5363 27.62C18.6792 27.4772 18.8745 27.3953 19.0793 27.3925H27.4753C27.6828 27.3925 27.8818 27.4728 28.0285 27.6157C28.1753 27.7585 28.2578 27.9522 28.2578 28.1543C28.2578 28.3563 28.1753 28.55 28.0285 28.6929C27.8818 28.8357 27.6828 28.916 27.4753 28.916H19.8416V33.4765C19.8441 33.6758 19.7651 33.8681 19.6222 34.0109C19.4793 34.1537 19.284 34.2354 19.0793 34.2382Z" fill="#666666"/>
<path fill-rule="evenodd" clip-rule="evenodd" d="M18.3168 8.36914H10.6832C10.4756 8.36914 10.2767 8.28895 10.1299 8.1461C9.98319 8.00325 9.9007 7.80941 9.9007 7.60739C9.9007 7.40537 9.98319 7.21165 10.1299 7.0688C10.2767 6.92595 10.4756 6.84576 10.6832 6.84576H18.3168C18.5243 6.84576 18.7233 6.92595 18.8701 7.0688C19.0168 7.21165 19.0993 7.40537 19.0993 7.60739C19.0993 7.80941 19.0168 8.00325 18.8701 8.1461C18.7233 8.28895 18.5243 8.36914 18.3168 8.36914Z" fill="#E44331"/>
<path fill-rule="evenodd" clip-rule="evenodd" d="M20.604 15.2148H17.5545C17.347 15.2148 17.148 15.1347 17.0012 14.9918C16.8545 14.849 16.772 14.6551 16.772 14.4531C16.772 14.2511 16.8545 14.0574 17.0012 13.9145C17.148 13.7717 17.347 13.6915 17.5545 13.6915H20.604C20.8115 13.6915 21.0105 13.7717 21.1572 13.9145C21.3039 14.0574 21.3863 14.2511 21.3863 14.4531C21.3863 14.6551 21.3039 14.849 21.1572 14.9918C21.0105 15.1347 20.8115 15.2148 20.604 15.2148ZM14.505 15.2148H11.4456C11.238 15.2148 11.0389 15.1347 10.8922 14.9918C10.7455 14.849 10.6631 14.6551 10.6631 14.4531C10.6631 14.2511 10.7455 14.0574 10.8922 13.9145C11.0389 13.7717 11.238 13.6915 11.4456 13.6915H14.505C14.7125 13.6915 14.9116 13.7717 15.0583 13.9145C15.2051 14.0574 15.2874 14.2511 15.2874 14.4531C15.2874 14.6551 15.2051 14.849 15.0583 14.9918C14.9116 15.1347 14.7125 15.2148 14.505 15.2148ZM8.39605 15.2148H5.34654C5.13903 15.2148 4.94005 15.1347 4.79331 14.9918C4.64658 14.849 4.56421 14.6551 4.56421 14.4531C4.56421 14.2511 4.64658 14.0574 4.79331 13.9145C4.94005 13.7717 5.13903 13.6915 5.34654 13.6915H8.39605C8.4988 13.6915 8.60051 13.7111 8.69544 13.7494C8.79037 13.7877 8.87662 13.8438 8.94928 13.9145C9.02193 13.9852 9.07955 14.0692 9.11887 14.1616C9.15819 14.254 9.1785 14.3531 9.1785 14.4531C9.1785 14.5531 9.15819 14.6523 9.11887 14.7447C9.07955 14.8371 9.02193 14.9211 8.94928 14.9918C8.87662 15.0625 8.79037 15.1186 8.69544 15.1569C8.60051 15.1952 8.4988 15.2148 8.39605 15.2148Z" fill="#E44331"/>
<path fill-rule="evenodd" clip-rule="evenodd" d="M13.7426 18.2617H11.4456C11.238 18.2617 11.0389 18.1815 10.8922 18.0387C10.7455 17.8958 10.6631 17.702 10.6631 17.5C10.6631 17.2979 10.7455 17.1042 10.8922 16.9614C11.0389 16.8185 11.238 16.7383 11.4456 16.7383H13.7426C13.9501 16.7383 14.1492 16.8185 14.2959 16.9614C14.4427 17.1042 14.5251 17.2979 14.5251 17.5C14.5251 17.702 14.4427 17.8958 14.2959 18.0387C14.1492 18.1815 13.9501 18.2617 13.7426 18.2617ZM8.39605 18.2617H5.34654C5.13903 18.2617 4.94005 18.1815 4.79331 18.0387C4.64658 17.8958 4.56421 17.702 4.56421 17.5C4.56421 17.2979 4.64658 17.1042 4.79331 16.9614C4.94005 16.8185 5.13903 16.7383 5.34654 16.7383H8.39605C8.4988 16.7383 8.60051 16.758 8.69544 16.7963C8.79037 16.8346 8.87662 16.8907 8.94928 16.9614C9.02193 17.0321 9.07955 17.1161 9.11887 17.2085C9.15819 17.3009 9.1785 17.3999 9.1785 17.5C9.1785 17.6 9.15819 17.6991 9.11887 17.7916C9.07955 17.884 9.02193 17.9679 8.94928 18.0387C8.87662 18.1094 8.79037 18.1655 8.69544 18.2038C8.60051 18.2421 8.4988 18.2617 8.39605 18.2617Z" fill="#E44331"/>
<path fill-rule="evenodd" clip-rule="evenodd" d="M15.9895 26.3575C15.5562 26.3379 15.1292 26.2488 14.7257 26.0938C14.5837 26.0392 14.4609 25.946 14.3719 25.8252C14.283 25.7044 14.2317 25.5612 14.2243 25.4127C14.2169 25.2643 14.2536 25.1169 14.3301 24.9882C14.4065 24.8596 14.5195 24.7552 14.6554 24.6875L16.7418 23.7013C16.7619 23.3399 16.772 22.8125 16.7619 22.3047C16.2642 22.6088 15.7367 22.864 15.1871 23.0665C15.0922 23.0986 14.9919 23.1121 14.8916 23.1064C14.7914 23.1007 14.6932 23.0758 14.6029 23.0332C14.5125 22.9906 14.4317 22.931 14.365 22.858C14.2982 22.7849 14.247 22.6999 14.2141 22.6075C14.1444 22.4183 14.1535 22.21 14.2398 22.0274C14.3261 21.8448 14.4826 21.7025 14.6755 21.6309C15.5183 21.3262 16.2944 20.8689 16.9626 20.2833C17.0674 20.1889 17.1977 20.1259 17.3382 20.1016C17.4787 20.0774 17.6233 20.093 17.755 20.1466C17.8846 20.2017 17.9968 20.2897 18.0797 20.4013C18.1626 20.5129 18.2133 20.6441 18.2266 20.7812C18.2913 21.626 18.3113 22.4736 18.2867 23.3204C18.3156 23.3331 18.3426 23.3494 18.367 23.3691C18.383 23.3161 18.4188 23.2708 18.4673 23.2422C18.6134 22.9702 18.6956 22.6701 18.708 22.3634C18.7263 22.207 18.794 22.06 18.9019 21.9428C19.0097 21.8256 19.1522 21.7439 19.3099 21.709C19.4465 21.6832 19.5878 21.694 19.7186 21.7405C19.8494 21.787 19.9647 21.8673 20.0522 21.9727L20.1826 20.7031C20.1898 20.6063 20.2166 20.5119 20.2613 20.4251C20.3061 20.3384 20.3679 20.2611 20.4434 20.1976C20.5188 20.1341 20.6064 20.0857 20.701 20.0551C20.7957 20.0246 20.8957 20.0125 20.9952 20.0196C21.0946 20.0267 21.1916 20.0527 21.2807 20.0962C21.3698 20.1398 21.4493 20.2001 21.5145 20.2735C21.5797 20.347 21.6294 20.4322 21.6608 20.5243C21.6922 20.6165 21.7045 20.7137 21.6973 20.8106C21.6739 21.4262 21.6907 22.0427 21.7475 22.6563C21.8227 22.5875 21.9113 22.5344 22.0082 22.5L24.6966 21.504C24.7907 21.469 24.891 21.4526 24.9917 21.4558C25.0924 21.459 25.1913 21.4817 25.2829 21.5226C25.3744 21.5635 25.4567 21.6219 25.5248 21.6941C25.593 21.7664 25.6456 21.8511 25.6796 21.9434C25.7535 22.1325 25.7476 22.3423 25.663 22.5272C25.5784 22.712 25.4221 22.8568 25.2283 22.9297L22.8208 23.8184C22.5485 24.3239 22.1347 24.7438 21.6271 25.0294C21.5248 25.0883 21.4095 25.1225 21.2909 25.1293C21.1722 25.1361 21.0536 25.1152 20.945 25.0683C20.873 25.0341 20.8057 24.9915 20.7444 24.9414C20.5496 25.0614 20.3227 25.1226 20.0923 25.1172C19.914 25.1145 19.7424 25.0501 19.6083 24.9357C19.4742 24.8212 19.3862 24.664 19.3601 24.4922C19.1804 24.6339 18.9731 24.739 18.7508 24.8011C18.5284 24.8632 18.2956 24.881 18.066 24.8535C17.9438 25.1932 17.7411 25.5001 17.4745 25.7495C17.2079 25.9989 16.8848 26.1837 16.5312 26.2891C16.3547 26.3358 16.1724 26.3588 15.9895 26.3575Z" fill="#E44331"/>
</g>
<defs>
<clipPath id="clip0">
<rect width="29" height="35" fill="white"/>
</clipPath>
</defs>
</svg>
