<svg width="35" height="35" viewBox="0 0 35 35" fill="none" xmlns="http://www.w3.org/2000/svg">
<path fill-rule="evenodd" clip-rule="evenodd" d="M22.4101 19.7181C21.3881 19.72 20.4071 19.3126 19.6828 18.5856L16.4114 15.3132C16.0533 14.9567 15.769 14.5321 15.575 14.0639C15.381 13.5958 15.2811 13.0935 15.2811 12.5861C15.2811 12.0788 15.381 11.5763 15.575 11.1082C15.769 10.6401 16.0533 10.2155 16.4114 9.85905L25.1374 1.1324C25.8625 0.407147 26.8424 0.000183105 27.8638 0.000183105C28.8851 0.000183105 29.865 0.407147 30.5901 1.1324L33.8666 4.40491C34.2226 4.7626 34.505 5.18761 34.6977 5.65558C34.8904 6.12355 34.9896 6.62528 34.9896 7.13198C34.9896 7.63869 34.8904 8.14042 34.6977 8.60839C34.505 9.07636 34.2226 9.50137 33.8666 9.85905L25.1374 18.5856C24.4131 19.3126 23.4322 19.72 22.4101 19.7181ZM27.8597 1.54798C27.5569 1.54675 27.2569 1.60572 26.9768 1.7216C26.6968 1.83747 26.4422 2.00787 26.2276 2.22316L17.5016 10.9498C17.2868 11.1637 17.1162 11.4185 16.9998 11.6994C16.8835 11.9803 16.8236 12.2817 16.8236 12.5861C16.8236 12.8905 16.8835 13.1918 16.9998 13.4727C17.1162 13.7536 17.2868 14.0084 17.5016 14.2223L20.7739 17.4948C21.2167 17.9153 21.8019 18.1495 22.4101 18.1495C23.0183 18.1495 23.6036 17.9153 24.0463 17.4948L32.7745 8.76818C32.9899 8.5546 33.1609 8.29986 33.2777 8.01894C33.3945 7.73802 33.4546 7.43658 33.4546 7.13198C33.4546 6.82739 33.3945 6.52582 33.2777 6.2449C33.1609 5.96398 32.9899 5.70924 32.7745 5.49567L29.4979 2.22316C29.2824 2.00736 29.0268 1.83672 28.7456 1.72083C28.4645 1.60495 28.1634 1.54621 27.8597 1.54798Z" fill="#666666"/>
<path fill-rule="evenodd" clip-rule="evenodd" d="M7.13999 34.9896C6.63358 34.993 6.1316 34.8945 5.66333 34.7001C5.19506 34.5057 4.7699 34.2192 4.41268 33.8573L1.14127 30.5847C0.7832 30.2283 0.498903 29.8036 0.304862 29.3355C0.110821 28.8673 0.0109253 28.365 0.0109253 27.8577C0.0109253 27.3503 0.110821 26.848 0.304862 26.3799C0.498903 25.9117 0.7832 25.4871 1.14127 25.1306L9.8663 16.404C10.5915 15.6786 11.5716 15.2716 12.5931 15.2716C13.6146 15.2716 14.5947 15.6786 15.32 16.404L18.5923 19.6765C18.95 20.0332 19.234 20.4579 19.4278 20.926C19.6216 21.3941 19.7214 21.8963 19.7214 22.4035C19.7214 22.9108 19.6216 23.413 19.4278 23.8811C19.234 24.3492 18.95 24.7739 18.5923 25.1306L9.8663 33.8573C9.5092 34.2191 9.08418 34.5055 8.61609 34.7C8.14801 34.8944 7.64623 34.9928 7.13999 34.9896ZM12.5937 16.8195C12.2903 16.8182 11.9897 16.8772 11.7089 16.993C11.4282 17.1089 11.1728 17.2794 10.9575 17.4948L2.23142 26.2215C2.01666 26.4354 1.84615 26.6901 1.72977 26.971C1.61339 27.2518 1.55343 27.5533 1.55343 27.8577C1.55343 28.1621 1.61339 28.4635 1.72977 28.7444C1.84615 29.0253 2.01666 29.2799 2.23142 29.4939L5.50378 32.7664C5.94461 33.1906 6.5306 33.4273 7.13999 33.4273C7.74939 33.4273 8.33537 33.1906 8.7762 32.7664L17.5012 24.0397C17.716 23.8258 17.8865 23.5711 18.0029 23.2902C18.1193 23.0094 18.1792 22.7079 18.1792 22.4035C18.1792 22.0991 18.1193 21.7977 18.0029 21.5168C17.8865 21.236 17.716 20.9813 17.5012 20.7673L14.2298 17.4948C14.0145 17.2794 13.7591 17.1089 13.4784 16.993C13.1976 16.8772 12.897 16.8182 12.5937 16.8195Z" fill="#666666"/>
<path fill-rule="evenodd" clip-rule="evenodd" d="M10.9578 24.8189C10.7538 24.816 10.5586 24.7342 10.4127 24.5904C10.341 24.5191 10.2841 24.4343 10.2452 24.3407C10.2063 24.247 10.1863 24.1465 10.1863 24.0449C10.1863 23.9434 10.2063 23.843 10.2452 23.7493C10.2841 23.6557 10.341 23.5709 10.4127 23.4996L23.4981 10.3992C23.5693 10.3244 23.6546 10.2648 23.7489 10.2237C23.8432 10.1826 23.9447 10.1609 24.0474 10.1599C24.1501 10.1589 24.252 10.1786 24.3471 10.2178C24.4422 10.2571 24.5286 10.315 24.6012 10.3883C24.6738 10.4616 24.7311 10.5489 24.7699 10.6448C24.8086 10.7408 24.8279 10.8436 24.8266 10.9472C24.8254 11.0508 24.8038 11.153 24.7628 11.248C24.7219 11.343 24.6626 11.4289 24.5883 11.5005L11.5028 24.5904C11.3568 24.7341 11.1618 24.8158 10.9578 24.8189Z" fill="#E44331"/>
</svg>
