<svg width="30" height="35" viewBox="0 0 30 35" fill="none" xmlns="http://www.w3.org/2000/svg">
<g clip-path="url(#clip0)">
<path fill-rule="evenodd" clip-rule="evenodd" d="M19.739 22.5948H10.267V21.1364H19.739V22.5948Z" fill="#666666"/>
<path fill-rule="evenodd" clip-rule="evenodd" d="M8.68903 34.9907H7.10999C7.00755 34.9907 6.90616 34.9717 6.81152 34.9351C6.71689 34.8985 6.6309 34.8448 6.55847 34.7771C6.48604 34.7093 6.42854 34.629 6.38934 34.5405C6.35014 34.452 6.33002 34.3572 6.33002 34.2615C6.33002 34.1657 6.35014 34.0709 6.38934 33.9825C6.42854 33.894 6.48604 33.8136 6.55847 33.7459C6.6309 33.6782 6.71689 33.6245 6.81152 33.5879C6.90616 33.5512 7.00755 33.5323 7.10999 33.5323H8.68903C10.1451 33.5385 11.5444 33.0047 12.5801 32.0479C13.6159 31.0911 14.2034 29.7893 14.214 28.4282V6.56249C14.2053 5.20075 13.6183 3.89802 12.5822 2.94082C11.5461 1.98363 10.1457 1.4504 8.68903 1.45836H7.10999C6.90312 1.45836 6.70475 1.38154 6.55847 1.24479C6.41219 1.10805 6.33002 0.92255 6.33002 0.729163C6.33002 0.535776 6.41219 0.350337 6.55847 0.213592C6.70475 0.0768466 6.90312 2.58608e-05 7.10999 2.58608e-05H8.68903C10.5606 -0.00719512 12.3588 0.679496 13.6897 1.90962C15.0206 3.13975 15.7755 4.81293 15.789 6.56249V28.4282C15.7755 30.1777 15.0206 31.8509 13.6897 33.0811C12.3588 34.3112 10.5606 34.9979 8.68903 34.9907Z" fill="#666666"/>
<path fill-rule="evenodd" clip-rule="evenodd" d="M22.9 34.9907H21.322C19.4505 34.9979 17.6522 34.3112 16.3213 33.0811C14.9904 31.8509 14.2355 30.1777 14.222 28.4282V6.56249C14.2355 4.81293 14.9904 3.13975 16.3213 1.90962C17.6522 0.679496 19.4505 -0.00719512 21.322 2.58608e-05H22.9C23.1069 2.58608e-05 23.3053 0.0768466 23.4515 0.213592C23.5978 0.350337 23.68 0.535776 23.68 0.729163C23.68 0.92255 23.5978 1.10805 23.4515 1.24479C23.3053 1.38154 23.1069 1.45836 22.9 1.45836H21.322C19.8654 1.4504 18.4649 1.98363 17.4288 2.94082C16.3927 3.89802 15.8057 5.20075 15.797 6.56249V28.4282C15.8076 29.7893 16.3951 31.0911 17.4308 32.0479C18.4666 33.0047 19.8659 33.5385 21.322 33.5323H22.9C23.0025 33.5323 23.1039 33.5512 23.1985 33.5879C23.2931 33.6245 23.3791 33.6782 23.4515 33.7459C23.524 33.8136 23.5814 33.894 23.6206 33.9825C23.6598 34.0709 23.68 34.1657 23.68 34.2615C23.68 34.3572 23.6598 34.452 23.6206 34.5405C23.5814 34.629 23.524 34.7093 23.4515 34.7771C23.3791 34.8448 23.2931 34.8985 23.1985 34.9351C23.1039 34.9717 23.0025 34.9907 22.9 34.9907Z" fill="#666666"/>
<path fill-rule="evenodd" clip-rule="evenodd" d="M29.21 26.9698H26.843V25.5115H28.42V24.7823H30V26.2407C29.9996 26.3371 29.9788 26.4325 29.9388 26.5214C29.8989 26.6103 29.8406 26.691 29.7672 26.7588C29.6937 26.8265 29.6067 26.88 29.5111 26.9162C29.4155 26.9525 29.3132 26.9706 29.21 26.9698Z" fill="#E44331"/>
<path fill-rule="evenodd" clip-rule="evenodd" d="M23.686 26.9697H19.739V25.5115H23.686V26.9697ZM16.586 26.9697H12.639V25.5115H16.586V26.9697ZM9.48602 26.9697H5.539V25.5115H9.48602V26.9697Z" fill="#E44331"/>
<path fill-rule="evenodd" clip-rule="evenodd" d="M2.37402 26.9698H0.799988C0.591871 26.9707 0.39181 26.8946 0.243713 26.758C0.0956164 26.6213 0.0115957 26.4352 0.0100098 26.2407V24.7823H1.58899V25.5115H2.37799V26.9698H2.37402Z" fill="#E44331"/>
<path fill-rule="evenodd" clip-rule="evenodd" d="M1.58502 21.8656H0.00598145V18.2198H1.58502V21.8656Z" fill="#E44331"/>
<path fill-rule="evenodd" clip-rule="evenodd" d="M1.58502 15.3031H0.00598145V13.1157C0.00756742 12.9211 0.0916491 12.7351 0.239746 12.5984C0.387843 12.4617 0.587904 12.3855 0.796021 12.3865H2.37402V13.8449H1.58502V15.3031Z" fill="#E44331"/>
<path fill-rule="evenodd" clip-rule="evenodd" d="M23.686 13.8449H19.739V12.3865H23.686V13.8449ZM16.586 13.8449H12.639V12.3865H16.586V13.8449ZM9.48602 13.8449H5.539V12.3865H9.48602V13.8449Z" fill="#E44331"/>
<path fill-rule="evenodd" clip-rule="evenodd" d="M30 15.3032H28.42V13.8449H26.843V12.3865H29.21C29.3132 12.3856 29.4155 12.4039 29.5111 12.4401C29.6067 12.4764 29.6937 12.5299 29.7672 12.5976C29.8406 12.6654 29.8989 12.7461 29.9388 12.835C29.9788 12.9239 29.9996 13.0193 30 13.1157V15.3032Z" fill="#E44331"/>
<path fill-rule="evenodd" clip-rule="evenodd" d="M30 21.8656H28.42V18.2198H30V21.8656Z" fill="#E44331"/>
</g>
<defs>
<clipPath id="clip0">
<rect width="30" height="35" fill="white"/>
</clipPath>
</defs>
</svg>
