<svg width="35" height="35" viewBox="0 0 35 35" fill="none" xmlns="http://www.w3.org/2000/svg">
<g clip-path="url(#clip0)">
<path fill-rule="evenodd" clip-rule="evenodd" d="M35 24.3446C35.0034 22.873 34.5742 21.4318 33.7641 20.1953C32.954 18.9587 31.7977 17.9796 30.435 17.3764V2.28239C30.4372 1.98486 30.38 1.68982 30.2664 1.41409C30.1529 1.13837 29.9854 0.887361 29.7734 0.675422C29.5614 0.463482 29.3091 0.294753 29.0309 0.178866C28.7527 0.0629787 28.454 0.002191 28.152 0H6.85198C6.74321 0.000785163 6.63596 0.0253436 6.53799 0.0719071C6.51171 0.0867159 6.48665 0.103537 6.46301 0.12217C6.3977 0.160045 6.33837 0.207143 6.28698 0.262016C6.27898 0.271867 6.26598 0.275794 6.25698 0.285644L0.170009 7.89325C0.145013 7.93078 0.123267 7.97032 0.105006 8.01145C0.0880615 8.03762 0.0730103 8.06495 0.0599927 8.09322C0.024376 8.18067 0.00539373 8.27382 0.00399293 8.36804V32.7137C-0.000266022 33.3144 0.23786 33.8922 0.66598 34.32C1.0941 34.7478 1.67715 34.9907 2.28698 34.9951H28.156C28.7658 34.9907 29.3489 34.7478 29.777 34.32C30.2052 33.8922 30.4432 33.3144 30.439 32.7137V31.313C31.801 30.7091 32.9564 29.7298 33.7657 28.4933C34.5751 27.2568 35.0038 25.8159 35 24.3446ZM6.087 2.92955V6.84711C6.08833 7.04732 6.00892 7.23986 5.86624 7.38244C5.72355 7.52503 5.52923 7.60604 5.32598 7.6076H2.34399L6.087 2.92955ZM28.913 32.7137C28.9141 32.9138 28.8346 33.1062 28.6919 33.2487C28.5493 33.3913 28.3552 33.4723 28.152 33.4741H2.28298C2.07982 33.4723 1.88567 33.3913 1.74304 33.2487C1.60041 33.1062 1.52093 32.9138 1.522 32.7137V9.1295H5.32199C5.62403 9.12731 5.92269 9.06652 6.20089 8.95063C6.47909 8.83474 6.73139 8.66602 6.94339 8.45408C7.15538 8.24214 7.32291 7.99113 7.43643 7.7154C7.54995 7.43968 7.60725 7.14464 7.60501 6.84711V1.52189H28.148C28.3513 1.52346 28.5455 1.60447 28.6882 1.74705C28.8309 1.88964 28.9103 2.08218 28.909 2.28239V16.8907C28.4083 16.7885 27.8983 16.737 27.387 16.7371C25.3602 16.7692 23.4276 17.5849 22.0058 19.0081C20.5841 20.4313 19.7873 22.3479 19.7873 24.3446C19.7873 26.3414 20.5841 28.2581 22.0058 29.6813C23.4276 31.1045 25.3602 31.9201 27.387 31.9522C27.8983 31.9522 28.4082 31.901 28.909 31.7995V32.7137H28.913ZM27.391 30.4313C26.1651 30.4493 24.9616 30.1077 23.9334 29.4499C22.9053 28.7921 22.099 27.8479 21.6172 26.7374C21.1354 25.6269 20.9998 24.4003 21.2277 23.2137C21.4556 22.0271 22.0367 20.9341 22.8971 20.0738C23.7575 19.2135 24.8582 18.6247 26.0593 18.3824C27.2603 18.1401 28.5074 18.2553 29.6418 18.7132C30.7763 19.1711 31.7468 19.9511 32.4299 20.9539C33.113 21.9567 33.4779 23.137 33.478 24.3446C33.4881 25.9463 32.853 27.4865 31.7119 28.6276C30.5708 29.7686 29.0169 30.4173 27.391 30.4313Z" fill="#666666"/>
<path fill-rule="evenodd" clip-rule="evenodd" d="M29.9 22.2849L26.537 25.6479L24.773 24.4727C24.6901 24.4171 24.5967 24.3784 24.4984 24.3589C24.4 24.3394 24.2987 24.3395 24.2004 24.3592C24.1021 24.3788 24.0088 24.4176 23.9259 24.4733C23.8431 24.529 23.7724 24.6005 23.718 24.6835C23.6056 24.8515 23.5647 25.0562 23.6042 25.2536C23.6436 25.451 23.7603 25.6252 23.929 25.7386L26.211 27.2604C26.3575 27.3572 26.5337 27.4003 26.7091 27.3823C26.8845 27.3643 27.0479 27.2863 27.171 27.1619L30.976 23.3586C31.1188 23.2147 31.1987 23.0215 31.1987 22.8203C31.1987 22.6191 31.1188 22.4259 30.976 22.282C30.9056 22.2117 30.8217 22.156 30.7292 22.1181C30.6368 22.0802 30.5376 22.0608 30.4374 22.0611C30.3372 22.0613 30.2381 22.0813 30.1458 22.1197C30.0535 22.1582 29.97 22.2143 29.9 22.2849Z" fill="#E44331"/>
<path fill-rule="evenodd" clip-rule="evenodd" d="M7.60901 11.4119H22.826C23.0261 11.4048 23.2155 11.3215 23.3545 11.1796C23.4935 11.0376 23.5712 10.8481 23.5712 10.6509C23.5712 10.4537 23.4935 10.2642 23.3545 10.1222C23.2155 9.98031 23.0261 9.89701 22.826 9.88992H7.60901C7.40894 9.89701 7.21947 9.98031 7.08047 10.1222C6.94148 10.2642 6.8638 10.4537 6.8638 10.6509C6.8638 10.8481 6.94148 11.0376 7.08047 11.1796C7.21947 11.3215 7.40894 11.4048 7.60901 11.4119Z" fill="#E44331"/>
<path fill-rule="evenodd" clip-rule="evenodd" d="M7.60901 15.2151H22.826C23.0307 15.2151 23.2271 15.1351 23.3719 14.9924C23.5167 14.8498 23.598 14.6564 23.598 14.4547C23.598 14.253 23.5167 14.0596 23.3719 13.917C23.2271 13.7744 23.0307 13.6942 22.826 13.6942H7.60901C7.40426 13.6942 7.20789 13.7744 7.06311 13.917C6.91833 14.0596 6.83701 14.253 6.83701 14.4547C6.83701 14.6564 6.91833 14.8498 7.06311 14.9924C7.20789 15.1351 7.40426 15.2151 7.60901 15.2151Z" fill="#E44331"/>
<path fill-rule="evenodd" clip-rule="evenodd" d="M19.022 17.4975H7.60901C7.40894 17.5046 7.21947 17.5879 7.08047 17.7298C6.94148 17.8718 6.8638 18.0613 6.8638 18.2585C6.8638 18.4557 6.94148 18.6452 7.08047 18.7872C7.21947 18.9291 7.40894 19.0123 7.60901 19.0194H19.022C19.2221 19.0123 19.4115 18.9291 19.5505 18.7872C19.6895 18.6452 19.7672 18.4557 19.7672 18.2585C19.7672 18.0613 19.6895 17.8718 19.5505 17.7298C19.4115 17.5879 19.2221 17.5046 19.022 17.4975Z" fill="#E44331"/>
<path fill-rule="evenodd" clip-rule="evenodd" d="M7.60901 22.8228H17.5C17.7047 22.8228 17.9011 22.7426 18.0459 22.6C18.1907 22.4574 18.272 22.2639 18.272 22.0623C18.272 21.8606 18.1907 21.6672 18.0459 21.5246C17.9011 21.382 17.7047 21.3018 17.5 21.3018H7.60901C7.40426 21.3018 7.20789 21.382 7.06311 21.5246C6.91833 21.6672 6.83701 21.8606 6.83701 22.0623C6.83701 22.2639 6.91833 22.4574 7.06311 22.6C7.20789 22.7426 7.40426 22.8228 7.60901 22.8228Z" fill="#E44331"/>
<path fill-rule="evenodd" clip-rule="evenodd" d="M7.60901 26.627H17.5C17.7047 26.627 17.9011 26.5469 18.0459 26.4043C18.1907 26.2617 18.272 26.0682 18.272 25.8665C18.272 25.6649 18.1907 25.4715 18.0459 25.3289C17.9011 25.1863 17.7047 25.1061 17.5 25.1061H7.60901C7.40426 25.1061 7.20789 25.1863 7.06311 25.3289C6.91833 25.4715 6.83701 25.6649 6.83701 25.8665C6.83701 26.0682 6.91833 26.2617 7.06311 26.4043C7.20789 26.5469 7.40426 26.627 7.60901 26.627Z" fill="#E44331"/>
<path fill-rule="evenodd" clip-rule="evenodd" d="M18.261 28.9094H7.60901C7.40894 28.9165 7.21947 28.9997 7.08047 29.1417C6.94148 29.2836 6.8638 29.4731 6.8638 29.6703C6.8638 29.8675 6.94148 30.0571 7.08047 30.199C7.21947 30.3409 7.40894 30.4242 7.60901 30.4313H18.261C18.4611 30.4242 18.6506 30.3409 18.7896 30.199C18.9285 30.0571 19.0062 29.8675 19.0062 29.6703C19.0062 29.4731 18.9285 29.2836 18.7896 29.1417C18.6506 28.9997 18.4611 28.9165 18.261 28.9094Z" fill="#E44331"/>
</g>
<defs>
<clipPath id="clip0">
<rect width="35" height="35" fill="white"/>
</clipPath>
</defs>
</svg>
