<svg width="29" height="35" viewBox="0 0 29 35" fill="none" xmlns="http://www.w3.org/2000/svg">
<g clip-path="url(#clip0)">
<path fill-rule="evenodd" clip-rule="evenodd" d="M26.7166 35.0098H2.29047C1.67971 35.0054 1.09565 34.763 0.66631 34.3358C0.23697 33.9085 -0.00264541 33.3312 2.67918e-05 32.7305V2.28924C-0.0026187 1.99095 0.0545244 1.69508 0.168236 1.41854C0.281947 1.142 0.449971 0.890255 0.662697 0.677637C0.875424 0.465019 1.12873 0.295716 1.40803 0.179444C1.68733 0.0631724 1.98719 0.00216296 2.29047 -3.05176e-05H19.0839C19.2869 0.00386957 19.4805 0.0852932 19.6236 0.226963L28.7833 9.35439C28.9259 9.50039 29.006 9.69467 29.0071 9.89709V32.7305C29.0097 33.3312 28.7701 33.9085 28.3408 34.3358C27.9115 34.763 27.3274 35.0054 26.7166 35.0098ZM2.29047 1.52948C2.18952 1.52974 2.08959 1.54964 1.99649 1.58802C1.90339 1.6264 1.81896 1.68248 1.748 1.7531C1.67704 1.82372 1.62097 1.90747 1.58304 1.99949C1.54511 2.0915 1.52602 2.18995 1.52695 2.28924V32.7305C1.52667 32.9305 1.60674 33.1226 1.74972 33.2649C1.8927 33.4072 2.08708 33.4882 2.29047 33.4903H26.7166C26.92 33.4882 27.1143 33.4072 27.2573 33.2649C27.4003 33.1226 27.4804 32.9305 27.4801 32.7305V10.2129L18.7678 1.52948H2.29047Z" fill="#666666"/>
<path fill-rule="evenodd" clip-rule="evenodd" d="M28.2435 10.6569H19.0838C18.9828 10.6568 18.8829 10.6369 18.7897 10.5986C18.6965 10.5603 18.612 10.5041 18.541 10.4335C18.47 10.3628 18.414 10.2791 18.3761 10.187C18.3383 10.095 18.3193 9.99642 18.3204 9.89709V1.52948H19.8473V9.13728H28.2435V10.6569Z" fill="#666666"/>
<path fill-rule="evenodd" clip-rule="evenodd" d="M22.1368 27.402H5.34331C5.20787 27.4015 5.07503 27.3655 4.95834 27.2979C4.84164 27.2303 4.74529 27.1334 4.67917 27.0171C4.6124 26.8992 4.57821 26.766 4.57997 26.631C4.58174 26.4959 4.61939 26.3637 4.68922 26.2475L9.26906 18.6397C9.32937 18.5358 9.41473 18.4482 9.51761 18.3845C9.62049 18.3209 9.73774 18.2831 9.85899 18.2746C9.97967 18.26 10.1021 18.2758 10.2148 18.3207C10.3275 18.3656 10.4267 18.438 10.503 18.5311L14.6023 23.2971L17.8428 20.7217C17.9226 20.6541 18.0161 20.6039 18.1171 20.5745C18.2181 20.5451 18.3242 20.5371 18.4285 20.5511C18.5329 20.5651 18.633 20.6008 18.7223 20.6557C18.8115 20.7106 18.888 20.7836 18.9464 20.8697L22.7588 26.1982C22.8406 26.3121 22.8892 26.4459 22.8994 26.585C22.9097 26.7241 22.8812 26.8632 22.8169 26.9875C22.7541 27.1121 22.6571 27.217 22.5369 27.2902C22.4167 27.3634 22.2781 27.4021 22.1368 27.402ZM6.68666 25.8824H20.6489L18.1619 22.4091L14.9755 24.945C14.9 25.0077 14.8126 25.055 14.7182 25.084C14.6239 25.113 14.5246 25.1233 14.4262 25.1141C14.3278 25.1049 14.2323 25.0765 14.1452 25.0305C14.0581 24.9845 13.9813 24.9219 13.9191 24.8463L10.0325 20.327L6.68666 25.8824Z" fill="#E44331"/>
<path fill-rule="evenodd" clip-rule="evenodd" d="M10.3054 15.9854C9.61496 15.9944 8.93742 15.8012 8.35889 15.4304C7.78035 15.0597 7.32697 14.5281 7.05639 13.9033C6.7858 13.2785 6.71024 12.5887 6.83931 11.9215C6.96838 11.2544 7.29629 10.6401 7.78127 10.1566C8.26625 9.67324 8.88639 9.3426 9.56292 9.20676C10.2395 9.07092 10.9418 9.13605 11.5806 9.39382C12.2194 9.65159 12.7659 10.0903 13.1505 10.6544C13.5351 11.2184 13.7405 11.8821 13.7405 12.5612C13.7451 13.4629 13.3861 14.3296 12.7422 14.9714C12.0984 15.6132 11.2221 15.9778 10.3054 15.9854ZM10.3054 10.6569C9.9212 10.651 9.54396 10.7577 9.22161 10.9633C8.89925 11.169 8.64637 11.4644 8.49519 11.8118C8.34401 12.1592 8.30139 12.5429 8.37266 12.9143C8.44394 13.2856 8.62592 13.6278 8.89548 13.8971C9.16503 14.1664 9.50996 14.3508 9.88636 14.4267C10.2628 14.5026 10.6536 14.4666 11.0092 14.3234C11.3648 14.1801 11.6689 13.9361 11.8831 13.6223C12.0972 13.3085 12.2115 12.9392 12.2116 12.5612C12.214 12.0606 12.0149 11.5793 11.6578 11.2225C11.3006 10.8657 10.8144 10.6624 10.3054 10.6569Z" fill="#E44331"/>
</g>
<defs>
<clipPath id="clip0">
<rect width="29" height="35" fill="white"/>
</clipPath>
</defs>
</svg>
