<svg width="35" height="35" viewBox="0 0 35 35" fill="none" xmlns="http://www.w3.org/2000/svg">
<g clip-path="url(#clip0)">
<path fill-rule="evenodd" clip-rule="evenodd" d="M3.18851 30.2371C3.08328 30.2366 2.97919 30.2156 2.8822 30.1752C2.78522 30.1349 2.69725 30.0761 2.62332 30.0022C2.5494 29.9282 2.49094 29.8407 2.45137 29.7444C2.4118 29.6482 2.39189 29.5451 2.39271 29.4412V5.55977C2.39271 5.35143 2.4765 5.15164 2.62575 5.00432C2.77499 4.857 2.97745 4.77423 3.18851 4.77423C3.39957 4.77423 3.60197 4.857 3.75121 5.00432C3.90045 5.15164 3.98431 5.35143 3.98431 5.55977V29.4412C3.985 29.5451 3.96495 29.648 3.92533 29.7442C3.88571 29.8404 3.82728 29.928 3.75338 30.0019C3.67948 30.0758 3.59155 30.1346 3.49462 30.175C3.3977 30.2154 3.2937 30.2364 3.18851 30.2371Z" fill="#666666"/>
<path fill-rule="evenodd" clip-rule="evenodd" d="M31.8325 30.2371C31.7273 30.2364 31.6232 30.2154 31.5263 30.175C31.4294 30.1346 31.3415 30.0758 31.2676 30.0019C31.1937 29.928 31.1353 29.8404 31.0956 29.7442C31.056 29.648 31.036 29.5451 31.0367 29.4412V5.55977C31.0367 5.35143 31.1205 5.15164 31.2698 5.00432C31.419 4.857 31.6214 4.77423 31.8325 4.77423C32.0435 4.77423 32.2459 4.857 32.3952 5.00432C32.5444 5.15164 32.6283 5.35143 32.6283 5.55977V29.4412C32.6291 29.5451 32.6092 29.6482 32.5696 29.7444C32.53 29.8407 32.4716 29.9282 32.3976 30.0022C32.3237 30.0761 32.2358 30.1349 32.1388 30.1752C32.0418 30.2156 31.9377 30.2366 31.8325 30.2371Z" fill="#666666"/>
<path fill-rule="evenodd" clip-rule="evenodd" d="M29.4461 3.96702H5.57588C5.36204 3.96702 5.15698 3.88316 5.00577 3.7339C4.85457 3.58465 4.76961 3.38223 4.76961 3.17115C4.76961 2.96007 4.85457 2.75758 5.00577 2.60833C5.15698 2.45907 5.36204 2.37527 5.57588 2.37527H29.4461C29.6599 2.37527 29.865 2.45907 30.0162 2.60833C30.1674 2.75758 30.2523 2.96007 30.2523 3.17115C30.2523 3.38223 30.1674 3.58465 30.0162 3.7339C29.865 3.88316 29.6599 3.96702 29.4461 3.96702Z" fill="#666666"/>
<path fill-rule="evenodd" clip-rule="evenodd" d="M29.4461 32.6258H5.57587C5.36693 32.6184 5.16906 32.5312 5.0239 32.3827C4.87874 32.2341 4.79763 32.0358 4.79763 31.8294C4.79763 31.623 4.87874 31.4247 5.0239 31.2761C5.16906 31.1276 5.36693 31.0404 5.57587 31.033H29.4461C29.655 31.0404 29.8529 31.1276 29.9981 31.2761C30.1432 31.4247 30.2243 31.623 30.2243 31.8294C30.2243 32.0358 30.1432 32.2341 29.9981 32.3827C29.8529 32.5312 29.655 32.6184 29.4461 32.6258Z" fill="#666666"/>
<path fill-rule="evenodd" clip-rule="evenodd" d="M5.57567 6.35603H0.800826C0.695632 6.35535 0.591636 6.33427 0.494711 6.29391C0.397786 6.25355 0.309855 6.19474 0.235956 6.12083C0.162058 6.04693 0.103627 5.95934 0.0640059 5.86315C0.024385 5.76695 0.00434072 5.664 0.00502961 5.56016V0.783849C0.00420281 0.679973 0.0241151 0.57699 0.0636867 0.480734C0.103258 0.384479 0.161711 0.296852 0.235637 0.22292C0.309563 0.148988 0.397533 0.0902244 0.49452 0.0499095C0.591507 0.00959463 0.695592 -0.011484 0.800826 -0.0120239H5.57567C5.68082 -0.0113487 5.78485 0.00978621 5.88172 0.0501615C5.97859 0.0905368 6.06641 0.14938 6.14022 0.223298C6.21404 0.297216 6.27235 0.384798 6.31185 0.480986C6.35136 0.577175 6.37127 0.680059 6.37045 0.783849V5.56016C6.37127 5.66395 6.35136 5.76689 6.31185 5.86308C6.27235 5.95927 6.21404 6.04685 6.14022 6.12077C6.06641 6.19469 5.97859 6.25347 5.88172 6.29384C5.78485 6.33422 5.68082 6.35536 5.57567 6.35603ZM1.60186 4.76428H4.78511V1.57978H1.59458V4.76428H1.60186Z" fill="#666666"/>
<path fill-rule="evenodd" clip-rule="evenodd" d="M5.57581 35.0134H0.800968C0.695773 35.0128 0.591777 34.9916 0.494853 34.9513C0.397928 34.9109 0.309996 34.8521 0.236097 34.7782C0.162199 34.7043 0.103768 34.6167 0.0641471 34.5206C0.0245263 34.4244 0.00448194 34.3214 0.00517083 34.2176V29.4413C0.00448194 29.3374 0.0245263 29.2345 0.0641471 29.1383C0.103768 29.0421 0.162199 28.9545 0.236097 28.8806C0.309996 28.8067 0.397928 28.7479 0.494853 28.7076C0.591777 28.6672 0.695773 28.6461 0.800968 28.6454H5.57581C5.68096 28.6461 5.785 28.6672 5.88186 28.7076C5.97873 28.7479 6.06655 28.8068 6.14036 28.8807C6.21418 28.9546 6.27249 29.0421 6.31199 29.1383C6.3515 29.2345 6.37141 29.3375 6.37059 29.4413V34.2176C6.37141 34.3214 6.3515 34.4243 6.31199 34.5205C6.27249 34.6167 6.21418 34.7042 6.14036 34.7781C6.06655 34.852 5.97873 34.9109 5.88186 34.9513C5.785 34.9916 5.68096 35.0128 5.57581 35.0134ZM1.602 33.4217H4.78525V30.2371H1.59472V33.4217H1.602Z" fill="#666666"/>
<path fill-rule="evenodd" clip-rule="evenodd" d="M34.222 6.35566H29.4481C29.3429 6.35512 29.2388 6.33411 29.1418 6.29379C29.0448 6.25348 28.9569 6.19465 28.883 6.12072C28.809 6.04679 28.7506 5.95922 28.7111 5.86297C28.6715 5.76671 28.6515 5.66367 28.6523 5.55979V0.783483C28.6515 0.679607 28.6715 0.576623 28.7111 0.480368C28.7506 0.384113 28.809 0.296485 28.883 0.222554C28.9569 0.148622 29.0448 0.0898582 29.1418 0.0495433C29.2388 0.00922842 29.3429 -0.0118502 29.4481 -0.0123901H34.222C34.3272 -0.0118502 34.4313 0.00922842 34.5283 0.0495433C34.6253 0.0898582 34.7133 0.148622 34.7872 0.222554C34.8611 0.296485 34.9195 0.384113 34.9591 0.480368C34.9987 0.576623 35.0187 0.679607 35.0178 0.783483V5.55979C35.0185 5.66363 34.9985 5.76659 34.9588 5.86278C34.9192 5.95897 34.8608 6.04656 34.7869 6.12047C34.713 6.19437 34.6251 6.25318 34.5281 6.29354C34.4312 6.3339 34.3272 6.35499 34.222 6.35566ZM30.2482 4.76392H33.4314V1.57942H30.2482V4.76392Z" fill="#666666"/>
<path fill-rule="evenodd" clip-rule="evenodd" d="M34.222 35.0134H29.4481C29.3429 35.0129 29.2388 34.9919 29.1418 34.9516C29.0448 34.9113 28.9569 34.8524 28.883 34.7785C28.809 34.7046 28.7506 34.6169 28.7111 34.5207C28.6715 34.4244 28.6515 34.3214 28.6523 34.2176V29.4413C28.6515 29.3374 28.6715 29.2344 28.7111 29.1381C28.7506 29.0419 28.809 28.9543 28.883 28.8803C28.9569 28.8064 29.0448 28.7476 29.1418 28.7073C29.2388 28.6669 29.3429 28.6459 29.4481 28.6454H34.222C34.3272 28.6461 34.4312 28.6672 34.5281 28.7076C34.6251 28.7479 34.713 28.8067 34.7869 28.8806C34.8608 28.9545 34.9192 29.0421 34.9589 29.1383C34.9985 29.2345 35.0185 29.3374 35.0178 29.4413V34.2176C35.0185 34.3214 34.9985 34.4244 34.9589 34.5206C34.9192 34.6167 34.8608 34.7043 34.7869 34.7782C34.713 34.8521 34.6251 34.9109 34.5281 34.9513C34.4312 34.9916 34.3272 35.0128 34.222 35.0134ZM30.2482 33.4217H33.4314V30.2371H30.2482V33.4217Z" fill="#666666"/>
<path fill-rule="evenodd" clip-rule="evenodd" d="M26.2638 12.7237C26.1153 12.7239 25.9697 12.6827 25.8437 12.6049C25.7178 12.5272 25.6166 12.4159 25.5517 12.284L24.1797 9.5402H10.8412L9.47027 12.284C9.42429 12.377 9.36006 12.46 9.28134 12.5283C9.20263 12.5966 9.11097 12.6489 9.01167 12.682C8.91238 12.7151 8.80744 12.7284 8.70288 12.7212C8.59832 12.714 8.4962 12.6865 8.40251 12.6401C8.21305 12.544 8.06947 12.3782 8.00276 12.1785C7.93604 11.9788 7.95153 11.7612 8.04591 11.5727L9.63756 8.38817C9.70256 8.25626 9.8038 8.14502 9.9297 8.0671C10.0556 7.98917 10.2011 7.94768 10.3497 7.94739H24.6712C24.8198 7.94768 24.9653 7.98917 25.0912 8.0671C25.2171 8.14502 25.3183 8.25626 25.3833 8.38817L26.9749 11.5727C27.0693 11.7612 27.0849 11.9788 27.0181 12.1785C26.9514 12.3782 26.8078 12.544 26.6183 12.6401C26.5084 12.695 26.387 12.7237 26.2638 12.7237Z" fill="#E44331"/>
<path fill-rule="evenodd" clip-rule="evenodd" d="M17.51 28.6454C17.4048 28.6447 17.3008 28.6236 17.204 28.5832C17.1071 28.5428 17.0192 28.484 16.9454 28.4101C16.8716 28.3361 16.8133 28.2486 16.7738 28.1524C16.7343 28.0563 16.7144 27.9533 16.7152 27.8495V8.74435C16.7113 8.63886 16.729 8.5337 16.7672 8.43512C16.8054 8.33654 16.8634 8.24655 16.9376 8.17056C17.0119 8.09458 17.1008 8.03417 17.1993 7.99289C17.2977 7.95161 17.4035 7.93033 17.5105 7.93033C17.6174 7.93033 17.7232 7.95161 17.8216 7.99289C17.9201 8.03417 18.0091 8.09458 18.0833 8.17056C18.1576 8.24655 18.2155 8.33654 18.2537 8.43512C18.2919 8.5337 18.3096 8.63886 18.3058 8.74435V27.8495C18.3066 27.9534 18.2866 28.0564 18.247 28.1526C18.2075 28.2489 18.1491 28.3365 18.0752 28.4104C18.0012 28.4844 17.9133 28.5432 17.8163 28.5835C17.7193 28.6238 17.6152 28.6448 17.51 28.6454Z" fill="#E44331"/>
<path fill-rule="evenodd" clip-rule="evenodd" d="M19.1015 28.6454H15.9214C15.7076 28.6454 15.5025 28.5615 15.3513 28.4122C15.2001 28.263 15.1152 28.0606 15.1152 27.8495C15.1152 27.6384 15.2001 27.436 15.3513 27.2867C15.5025 27.1375 15.7076 27.0536 15.9214 27.0536H19.1037C19.3175 27.0539 19.5224 27.138 19.6734 27.2874C19.8244 27.4369 19.9092 27.6394 19.9089 27.8505C19.9086 28.0616 19.8234 28.2639 19.672 28.413C19.5206 28.5621 19.3154 28.6456 19.1015 28.6454Z" fill="#E44331"/>
</g>
<defs>
<clipPath id="clip0">
<rect width="35" height="35" fill="white"/>
</clipPath>
</defs>
</svg>
