<svg width="35" height="35" viewBox="0 0 35 35" fill="none" xmlns="http://www.w3.org/2000/svg">
<g clip-path="url(#clip0)">
<path fill-rule="evenodd" clip-rule="evenodd" d="M32.717 35H2.28304C1.67426 34.9955 1.09209 34.7531 0.664146 34.3258C0.236197 33.8985 -0.0026415 33.3212 2.20411e-05 32.7205V2.27933C-0.0026415 1.6786 0.236197 1.10133 0.664146 0.674054C1.09209 0.246782 1.67426 0.00443445 2.28304 0H32.717C33.3258 0.00443445 33.908 0.246782 34.3359 0.674054C34.7638 1.10133 35.0027 1.6786 35 2.27933V32.7205C35.0027 33.3212 34.7638 33.8985 34.3359 34.3258C33.908 34.7531 33.3258 34.9955 32.717 35ZM2.28304 1.51951C2.18242 1.51977 2.08281 1.53967 1.99001 1.57805C1.89721 1.61644 1.81306 1.67257 1.74233 1.74319C1.6716 1.81381 1.61571 1.8975 1.5779 1.98952C1.5401 2.08153 1.52107 2.18004 1.52199 2.27933V32.7205C1.52172 32.9206 1.60152 33.1127 1.74404 33.255C1.88656 33.3973 2.08031 33.4783 2.28304 33.4803H32.717C32.9197 33.4783 33.1135 33.3973 33.256 33.255C33.3985 33.1127 33.4783 32.9206 33.4781 32.7205V2.27933C33.479 2.18004 33.4599 2.08153 33.4221 1.98952C33.3843 1.8975 33.3284 1.81381 33.2577 1.74319C33.187 1.67257 33.1028 1.61644 33.01 1.57805C32.9172 1.53967 32.8176 1.51977 32.717 1.51951H2.28304Z" fill="#666666"/>
<path fill-rule="evenodd" clip-rule="evenodd" d="M3.79998 4.9436C3.56982 4.94712 3.3438 4.88292 3.15069 4.7593C2.95758 4.63569 2.80613 4.45825 2.71557 4.24943C2.62501 4.04061 2.59944 3.80989 2.64215 3.5867C2.68485 3.3635 2.79389 3.15786 2.95538 2.996C3.11687 2.83413 3.32351 2.72338 3.54901 2.67776C3.7745 2.63213 4.00866 2.6537 4.22167 2.73979C4.43469 2.82588 4.6169 2.97266 4.74517 3.16126C4.87345 3.34986 4.94198 3.5718 4.94201 3.79893C4.94414 4.10008 4.82507 4.3898 4.61096 4.6044C4.39684 4.81901 4.10517 4.94099 3.79998 4.9436ZM3.79998 3.42396C3.6992 3.42396 3.60257 3.4635 3.53131 3.53382C3.46004 3.60414 3.41998 3.69949 3.41998 3.79893C3.41733 3.84986 3.42524 3.90083 3.44317 3.94866C3.4611 3.99648 3.48869 4.04021 3.52429 4.07718C3.55988 4.11415 3.60272 4.14355 3.6502 4.16366C3.69769 4.18378 3.74879 4.19414 3.80047 4.19414C3.85215 4.19414 3.90331 4.18378 3.9508 4.16366C3.99829 4.14355 4.04112 4.11415 4.07672 4.07718C4.11231 4.04021 4.1399 3.99648 4.15783 3.94866C4.17576 3.90083 4.18367 3.84986 4.18103 3.79893C4.18076 3.6994 4.14045 3.60399 4.06903 3.5337C3.9976 3.46341 3.90086 3.42396 3.79998 3.42396Z" fill="#666666"/>
<path fill-rule="evenodd" clip-rule="evenodd" d="M6.84802 4.94366C6.61782 4.94738 6.39167 4.88334 6.19842 4.75985C6.00518 4.63636 5.85359 4.45901 5.76287 4.25021C5.67216 4.04141 5.64643 3.81062 5.68902 3.58736C5.73161 3.3641 5.84056 3.1585 6.00201 2.99654C6.16346 2.83458 6.37012 2.72365 6.59564 2.67794C6.82116 2.63224 7.05536 2.6538 7.26843 2.73986C7.4815 2.82591 7.66379 2.97258 7.79211 3.1612C7.92043 3.34982 7.98898 3.57182 7.98901 3.799C7.99141 4.10005 7.87258 4.38971 7.65863 4.60434C7.44467 4.81898 7.15311 4.94105 6.84802 4.94366ZM6.84802 3.42403C6.74714 3.42403 6.65034 3.46347 6.57892 3.53376C6.50749 3.60405 6.46724 3.69946 6.46698 3.799C6.46433 3.84992 6.47224 3.90089 6.49017 3.94872C6.5081 3.99654 6.53569 4.04027 6.57129 4.07724C6.60688 4.11421 6.64972 4.14361 6.6972 4.16373C6.74469 4.18384 6.79579 4.1942 6.84747 4.1942C6.89915 4.1942 6.95031 4.18384 6.9978 4.16373C7.04529 4.14361 7.08812 4.11421 7.12371 4.07724C7.15931 4.04027 7.1869 3.99654 7.20483 3.94872C7.22276 3.90089 7.23067 3.84992 7.22802 3.799C7.22802 3.69955 7.18796 3.6042 7.1167 3.53388C7.04543 3.46356 6.9488 3.42403 6.84802 3.42403Z" fill="#666666"/>
<path fill-rule="evenodd" clip-rule="evenodd" d="M9.89099 4.9436C9.66083 4.94712 9.43481 4.88292 9.24169 4.7593C9.04858 4.63569 8.89714 4.45825 8.80657 4.24943C8.71601 4.04061 8.69044 3.80989 8.73315 3.5867C8.77585 3.3635 8.88489 3.15786 9.04638 2.996C9.20787 2.83413 9.41451 2.72338 9.64001 2.67776C9.8655 2.63213 10.0997 2.6537 10.3127 2.73979C10.5257 2.82588 10.7079 2.97266 10.8362 3.16126C10.9645 3.34986 11.033 3.5718 11.033 3.79893C11.0351 4.10008 10.9161 4.3898 10.702 4.6044C10.4878 4.81901 10.1962 4.94099 9.89099 4.9436ZM9.89099 3.42396C9.7902 3.42396 9.69357 3.4635 9.62231 3.53382C9.55105 3.60414 9.51098 3.69949 9.51098 3.79893C9.50833 3.84986 9.51625 3.90083 9.53417 3.94866C9.5521 3.99648 9.5797 4.04021 9.61529 4.07718C9.65088 4.11415 9.69372 4.14355 9.74121 4.16366C9.78869 4.18378 9.8398 4.19414 9.89147 4.19414C9.94315 4.19414 9.99432 4.18378 10.0418 4.16366C10.0893 4.14355 10.1321 4.11415 10.1677 4.07718C10.2033 4.04021 10.2309 3.99648 10.2488 3.94866C10.2668 3.90083 10.2746 3.84986 10.272 3.79893C10.2717 3.6994 10.2315 3.60399 10.16 3.5337C10.0886 3.46341 9.99186 3.42396 9.89099 3.42396Z" fill="#666666"/>
<path fill-rule="evenodd" clip-rule="evenodd" d="M34.239 7.60783H0.760986V6.0882H34.239V7.60783Z" fill="#666666"/>
<path fill-rule="evenodd" clip-rule="evenodd" d="M29.674 15.9754H5.32601C4.92004 15.9728 4.53173 15.8113 4.24636 15.5264C3.96098 15.2415 3.80191 14.8565 3.80404 14.4559V11.4068C3.80191 11.0062 3.96098 10.6212 4.24636 10.3363C4.53173 10.0514 4.92004 9.88988 5.32601 9.88727H29.674C30.08 9.88988 30.4683 10.0514 30.7537 10.3363C31.0391 10.6212 31.1981 11.0062 31.196 11.4068V14.4559C31.1981 14.8565 31.0391 15.2415 30.7537 15.5264C30.4683 15.8113 30.08 15.9728 29.674 15.9754ZM5.32601 11.4068V14.4559H29.675V11.4068H5.32601Z" fill="#E44331"/>
<path fill-rule="evenodd" clip-rule="evenodd" d="M29.674 23.5833H5.326C4.92004 23.5807 4.53173 23.4192 4.24635 23.1343C3.96098 22.8494 3.8019 22.4643 3.80403 22.0637V19.0246C3.80205 18.8255 3.83985 18.6279 3.9153 18.4433C3.99074 18.2586 4.10231 18.0905 4.24367 17.9484C4.38502 17.8064 4.55337 17.6932 4.73909 17.6154C4.9248 17.5376 5.12425 17.4967 5.326 17.4951H29.674C29.8758 17.4967 30.0752 17.5376 30.2609 17.6154C30.4467 17.6932 30.615 17.8064 30.7564 17.9484C30.8977 18.0905 31.0093 18.2586 31.0847 18.4433C31.1602 18.6279 31.198 18.8255 31.196 19.0246V22.0637C31.1981 22.4643 31.0391 22.8494 30.7537 23.1343C30.4683 23.4192 30.08 23.5807 29.674 23.5833ZM5.326 19.0246V22.0637H29.675V19.0246H5.326Z" fill="#E44331"/>
<path fill-rule="evenodd" clip-rule="evenodd" d="M29.674 31.1912H5.32602C4.92005 31.1886 4.53174 31.0271 4.24636 30.7421C3.96099 30.4572 3.80191 30.0721 3.80404 29.6716V26.6324C3.80164 26.2308 3.9603 25.8445 4.24545 25.558C4.5306 25.2714 4.91906 25.1078 5.32602 25.1029H29.674C30.081 25.1078 30.4695 25.2714 30.7546 25.558C31.0398 25.8445 31.1984 26.2308 31.196 26.6324V29.6716C31.1981 30.0721 31.0391 30.4572 30.7537 30.7421C30.4683 31.0271 30.08 31.1886 29.674 31.1912ZM5.32602 26.6324V29.6716H29.675V26.6324H5.32602Z" fill="#E44331"/>
</g>
<defs>
<clipPath id="clip0">
<rect width="35" height="35" fill="white"/>
</clipPath>
</defs>
</svg>
