<svg width="23" height="35" viewBox="0 0 23 35" fill="none" xmlns="http://www.w3.org/2000/svg">
<g clip-path="url(#clip0)">
<path fill-rule="evenodd" clip-rule="evenodd" d="M19.9287 5.66565H3.07143C2.88811 5.66475 2.71113 5.59758 2.5726 5.4763C2.43406 5.35503 2.34312 5.1877 2.31618 5.00454L1.55084 0.254427L3.06135 -0.00997925L3.71581 4.07891H19.2741L19.9388 -0.00997925L21.4493 0.254427L20.6839 5.00454C20.657 5.1877 20.5659 5.35503 20.4274 5.4763C20.2889 5.59758 20.112 5.66475 19.9287 5.66565Z" fill="#666666"/>
<path fill-rule="evenodd" clip-rule="evenodd" d="M13.0306 35C12.8265 34.9944 12.6323 34.9108 12.4869 34.7661L11.5 33.7388L10.5031 34.7661C10.4182 34.854 10.3131 34.9195 10.1972 34.9568C10.0812 34.9941 9.95809 35.0019 9.83846 34.9796C9.71662 34.9578 9.60176 34.9067 9.50361 34.8305C9.40546 34.7544 9.32685 34.6556 9.27448 34.5423L0.0805158 14.7282C0.0349199 14.6264 0.00972486 14.5165 0.0062688 14.4048C0.00281275 14.2931 0.0212669 14.1819 0.0604789 14.0774L3.8971 4.56702L5.30694 5.17728L1.61118 14.3621L10.1909 32.8538L10.9562 32.0604C11.0262 31.9857 11.1104 31.9262 11.2039 31.8855C11.2974 31.8448 11.3982 31.8238 11.5 31.8238C11.6019 31.8238 11.7025 31.8448 11.796 31.8855C11.8895 31.9262 11.9738 31.9857 12.0437 32.0604L12.8091 32.8538L21.3888 14.3621L17.6831 5.17728L19.1029 4.56702L22.9295 14.0774C22.9728 14.1806 22.9942 14.2918 22.9925 14.4039C22.9907 14.516 22.9659 14.6264 22.9194 14.7282L13.7255 34.5423C13.6731 34.6556 13.5945 34.7544 13.4964 34.8305C13.3982 34.9067 13.2833 34.9578 13.1615 34.9796C13.1188 34.9914 13.0748 34.9982 13.0306 35Z" fill="#666666"/>
<path fill-rule="evenodd" clip-rule="evenodd" d="M12.2654 32.6199H10.7347V18.3493H12.2654V32.6199Z" fill="#E44331"/>
<path fill-rule="evenodd" clip-rule="evenodd" d="M11.5 19.1428C10.8765 19.1581 10.2626 18.9855 9.73675 18.6469C9.21086 18.3083 8.79683 17.819 8.54745 17.2416C8.29806 16.6642 8.22466 16.0249 8.33663 15.4052C8.4486 14.7855 8.74074 14.2136 9.17596 13.7624C9.61119 13.3112 10.1697 13.0013 10.7801 12.8721C11.3905 12.743 12.0252 12.8005 12.6031 13.0373C13.181 13.2741 13.6759 13.6795 14.0246 14.2017C14.3734 14.7239 14.5602 15.3393 14.5612 15.9693C14.5693 16.7994 14.2519 17.599 13.6784 18.1935C13.1048 18.7881 12.3218 19.1294 11.5 19.1428ZM11.5 14.3825C11.1874 14.3742 10.8794 14.4603 10.6155 14.6297C10.3516 14.7991 10.1438 15.0441 10.0185 15.3334C9.89319 15.6228 9.85617 15.9433 9.91216 16.254C9.96816 16.5647 10.1146 16.8516 10.3328 17.0778C10.551 17.304 10.8311 17.4593 11.1371 17.5239C11.4432 17.5885 11.7613 17.5595 12.0509 17.4405C12.3406 17.3215 12.5886 17.1179 12.7631 16.8558C12.9376 16.5937 13.0306 16.2851 13.0305 15.9693C13.0356 15.5539 12.8773 15.1534 12.5903 14.8559C12.3033 14.5584 11.9112 14.3881 11.5 14.3825Z" fill="#E44331"/>
</g>
<defs>
<clipPath id="clip0">
<rect width="23" height="35" fill="white"/>
</clipPath>
</defs>
</svg>
