<svg width="35" height="35" viewBox="0 0 35 35" fill="none" xmlns="http://www.w3.org/2000/svg">
<g clip-path="url(#clip0)">
<path fill-rule="evenodd" clip-rule="evenodd" d="M32.6568 25.256H14C13.6911 25.2538 13.3856 25.1939 13.1011 25.0795C12.8166 24.9652 12.5587 24.7986 12.342 24.5895C12.1253 24.3804 11.9542 24.1326 11.8384 23.8606C11.7225 23.5886 11.6643 23.2976 11.667 23.0042V2.76713C11.6643 2.47372 11.7225 2.18264 11.8384 1.91063C11.9542 1.63861 12.1253 1.39098 12.342 1.18184C12.5587 0.972704 12.8166 0.806171 13.1011 0.691802C13.3856 0.577432 13.6911 0.517421 14 0.515263H24.8852C24.9881 0.514911 25.0899 0.534574 25.1844 0.572964C25.279 0.611354 25.3643 0.667641 25.435 0.738484L34.7649 9.73601C34.8373 9.80487 34.8947 9.88659 34.9338 9.97652C34.9729 10.0665 34.993 10.1629 34.9928 10.2602V23.0042C34.9955 23.2979 34.9372 23.5891 34.8212 23.8613C34.7052 24.1335 34.5337 24.3813 34.3167 24.5905C34.0997 24.7996 33.8414 24.9662 33.5566 25.0804C33.2717 25.1946 32.966 25.2542 32.6568 25.256ZM14 2.01975C13.8972 2.02 13.7954 2.03957 13.7006 2.07733C13.6058 2.11509 13.5197 2.1703 13.4474 2.23977C13.3751 2.30923 13.3181 2.39156 13.2794 2.48206C13.2408 2.57257 13.2214 2.66947 13.2223 2.76713V23.0042C13.2199 23.2025 13.3004 23.3937 13.4462 23.5356C13.592 23.6776 13.7912 23.7588 14 23.7613H32.6609C32.8695 23.7585 33.0684 23.6772 33.214 23.5352C33.3596 23.3933 33.44 23.2024 33.4375 23.0042V10.5707L24.5633 2.01975H14Z" fill="#666666"/>
<path fill-rule="evenodd" clip-rule="evenodd" d="M34.2111 11.0164H24.8812C24.6724 11.0138 24.4732 10.9326 24.3274 10.7907C24.1816 10.6487 24.1011 10.4576 24.1035 10.2593V2.01886H25.6588V9.5119H34.2111V11.0164Z" fill="#666666"/>
<path fill-rule="evenodd" clip-rule="evenodd" d="M19.4385 35H2.33298C2.02406 34.9979 1.71863 34.9378 1.43414 34.8235C1.14965 34.7091 0.891696 34.5426 0.675016 34.3334C0.458335 34.1243 0.287189 33.8767 0.171364 33.6047C0.0555395 33.3326 -0.0026968 33.0417 -2.13863e-06 32.7483V13.2585C-0.00272401 12.6676 0.241313 12.0997 0.678633 11.6794C1.11595 11.2592 1.71087 11.0208 2.33298 11.0164H11.6629V12.5111H2.33298C2.12581 12.5131 1.92788 12.5928 1.78224 12.7327C1.6366 12.8727 1.55505 13.0617 1.55533 13.2585V32.7483C1.55287 32.9466 1.6334 33.1377 1.77921 33.2797C1.92503 33.4216 2.12419 33.5027 2.33298 33.5052H19.4385C19.6472 33.5024 19.8463 33.4212 19.992 33.2793C20.1378 33.1374 20.2184 32.9465 20.2162 32.7483V24.5077H21.7664V32.7483C21.7719 33.34 21.5297 33.9095 21.0932 34.3318C20.6567 34.754 20.0615 34.9944 19.4385 35Z" fill="#666666"/>
<path fill-rule="evenodd" clip-rule="evenodd" d="M2.33298 8.19191H0.777651V3.69801C0.776708 3.60035 0.796119 3.50345 0.834753 3.41294C0.873386 3.32243 0.930502 3.24011 1.00278 3.17064C1.07506 3.10118 1.16109 3.04596 1.25592 3.0082C1.35075 2.97045 1.45251 2.95087 1.55533 2.95062H8.55328V4.44539H2.33298V8.19191Z" fill="#E44331"/>
<path fill-rule="evenodd" clip-rule="evenodd" d="M6.58103 7.40537L5.48148 6.34744L8.23035 3.69771L5.48148 1.04798L6.58103 -0.00994873L9.87971 3.16383C10.0263 3.30666 10.1083 3.49826 10.1083 3.69771C10.1083 3.89715 10.0263 4.08876 9.87971 4.23159L6.58103 7.40537Z" fill="#E44331"/>
<path fill-rule="evenodd" clip-rule="evenodd" d="M32.6568 32.0009H25.6588V30.5061H31.8832V26.7499H33.4375V31.2535C33.4386 31.3514 33.4192 31.4486 33.3804 31.5394C33.3417 31.6301 33.2843 31.7126 33.2117 31.7822C33.139 31.8517 33.0526 31.9068 32.9573 31.9444C32.8621 31.9819 32.7599 32.0011 32.6568 32.0009Z" fill="#E44331"/>
<path fill-rule="evenodd" clip-rule="evenodd" d="M27.6301 34.9611L24.3314 31.7777C24.1855 31.6365 24.1037 31.4465 24.1037 31.2486C24.1037 31.0508 24.1855 30.8608 24.3314 30.7196L27.6301 27.5457L28.7297 28.6038L25.9807 31.2535L28.7297 33.9032L27.6301 34.9611Z" fill="#E44331"/>
</g>
<defs>
<clipPath id="clip0">
<rect width="35" height="35" fill="white"/>
</clipPath>
</defs>
</svg>
