<svg width="171" height="123" viewBox="0 0 171 123" fill="none" xmlns="http://www.w3.org/2000/svg">
<path fill-rule="evenodd" clip-rule="evenodd" d="M5.47556 95.1867C7.95489 95.1867 9.58699 93.688 9.58699 90.2991C9.58699 87.365 7.84041 85.8338 5.36122 85.8338H3.5015V95.1867H5.47556ZM2.50613 84.9692H5.45918C8.95011 84.9692 10.7128 87.365 10.7128 90.2991C10.7128 93.7533 8.78784 96.0674 5.58974 96.0674H2.50613V84.9692Z" fill="white"/>
<path fill-rule="evenodd" clip-rule="evenodd" d="M15.5726 95.415C17.2037 95.415 18.1825 94.0305 18.1825 91.8142C18.1825 89.7772 17.1873 88.2458 15.5726 88.2458C13.9414 88.2458 12.9615 89.7772 12.9615 91.8142C12.9615 94.0141 13.9414 95.415 15.5726 95.415ZM15.5726 96.1816C13.3045 96.1816 11.9173 94.422 11.9173 91.8142C11.9173 89.2062 13.3045 87.4792 15.5726 87.4792C17.8569 87.4792 19.1941 89.2062 19.1941 91.8142C19.1941 94.422 17.8569 96.1816 15.5726 96.1816Z" fill="white"/>
<path fill-rule="evenodd" clip-rule="evenodd" d="M24.1364 96.1816C22.0153 96.1816 20.3669 94.5362 20.3669 91.8142C20.3669 89.3202 22.0153 87.4792 24.1364 87.4792C25.1316 87.4792 25.7675 87.6911 26.2412 88.0175L25.8818 88.782C25.4746 88.4252 24.8866 88.2458 24.1364 88.2458C22.8961 88.2458 21.4111 89.5488 21.4111 91.7163C21.4111 93.8837 22.5207 95.3008 24.2507 95.3008C25.0337 95.3008 25.491 95.1051 26.0125 94.7625L26.2412 95.6434C25.8982 95.8554 25.1316 96.1816 24.1364 96.1816Z" fill="white"/>
<path fill-rule="evenodd" clip-rule="evenodd" d="M30.5956 96.1816C28.85 96.1816 27.855 95.2029 27.855 93.4595V87.7564L28.8666 87.6422V93.2311C28.8666 94.5362 29.3553 95.3008 30.8569 95.3008C31.8847 95.3008 32.6024 94.6504 33.076 94.0468V87.7564L34.0874 87.6422V96.0673L33.076 96.1816V94.942C32.4389 95.7085 31.5582 96.1816 30.5956 96.1816Z" fill="white"/>
<path fill-rule="evenodd" clip-rule="evenodd" d="M36.8261 87.5771L37.8213 87.4792V88.7496C38.5389 87.8381 39.3382 87.4792 40.317 87.4792C41.5245 87.4792 42.3237 87.9359 42.6993 88.8474C43.4658 87.8706 44.4284 87.4792 45.4073 87.4792C47.1701 87.4792 48.0346 88.4415 48.0346 90.2011V96.0673H47.0394V90.4133C47.0394 89.1084 46.6639 88.3436 45.1634 88.3436C44.1355 88.3436 43.3842 89.0104 42.8952 89.6303C42.9117 89.8261 42.9279 90.0054 42.9279 90.2011V96.0673H41.9165V90.4133C41.9165 89.1084 41.5733 88.3436 40.0568 88.3436C39.0614 88.3436 38.2612 89.0104 37.8213 89.6139V96.0673H36.8261V87.5771Z" fill="white"/>
<path fill-rule="evenodd" clip-rule="evenodd" d="M55.5032 90.0871C55.5032 89.5814 55.3399 89.1409 55.0786 88.8309C54.949 88.7005 54.5244 88.2458 53.6761 88.2458C53.3005 88.2458 52.9575 88.3274 52.6321 88.4904C52.3217 88.6516 52.0276 88.8963 51.7836 89.2062C51.408 89.6792 51.1795 90.2176 51.0815 90.8517H55.5032V90.0871ZM53.8394 96.1816C52.3543 96.1816 51.4408 95.5455 50.9017 94.8441C50.3802 94.1936 49.9882 93.2149 49.9882 91.8629C49.9882 90.2338 50.5761 89.1246 51.2775 88.4252C51.9133 87.7891 52.73 87.4792 53.6925 87.4792C54.8183 87.4792 55.4706 87.9521 55.7809 88.2785C56.4658 89.0104 56.4822 89.875 56.4822 90.4133C56.4822 90.8517 56.4822 91.1615 56.3677 91.6185H50.9998V91.8142C50.9998 92.173 51.0324 92.5156 51.0978 92.8561C51.212 93.3616 51.3918 93.8348 51.7019 94.2425C52.1746 94.8767 52.877 95.3008 53.9374 95.3008C54.4428 95.3008 55.1602 95.2029 55.8626 94.7625L56.1228 95.5292C55.5196 95.9043 54.9817 96.0349 54.7367 96.0838C54.4428 96.1489 54.1488 96.1816 53.8394 96.1816Z" fill="white"/>
<path fill-rule="evenodd" clip-rule="evenodd" d="M58.5859 87.5771L59.581 87.4792V88.7496C60.1842 87.9686 61.0979 87.4792 62.0767 87.4792C63.8395 87.4792 64.8184 88.4415 64.8184 90.2011V96.0673H63.8068V90.4133C63.8068 89.1084 63.3168 88.3436 61.8163 88.3436C60.8211 88.3436 60.0209 89.0104 59.581 89.6139V96.0673H58.5859V87.5771Z" fill="white"/>
<path fill-rule="evenodd" clip-rule="evenodd" d="M69.041 96.1818C68.3888 96.1818 67.4099 95.8556 67.4099 94.2265V88.6681H66.1697L66.3004 87.7893H67.4099V86.1764L68.4052 85.948V87.7893H70.2813L70.1505 88.6681H68.4052V94.2265C68.4052 94.9909 68.6338 95.301 69.2697 95.301C69.6616 95.301 70.1343 95.0888 70.3956 94.8769L70.6405 95.6435C70.2649 95.9696 69.6454 96.1818 69.041 96.1818Z" fill="white"/>
<path fill-rule="evenodd" clip-rule="evenodd" d="M76.9855 96.1818C76.3333 96.1818 75.3541 95.8556 75.3541 94.2265V88.6681H74.114L74.2447 87.7893H75.3541V86.1764L76.3495 85.948V87.7893H78.2256L78.095 88.6681H76.3495V94.2265C76.3495 94.9909 76.578 95.301 77.214 95.301C77.6058 95.301 78.0785 95.0888 78.3398 94.8769L78.585 95.6435C78.2092 95.9696 77.5896 96.1818 76.9855 96.1818Z" fill="white"/>
<path fill-rule="evenodd" clip-rule="evenodd" d="M82.58 95.415C84.2111 95.415 85.19 94.0305 85.19 91.8142C85.19 89.7772 84.1947 88.2458 82.58 88.2458C80.9479 88.2458 79.9691 89.7772 79.9691 91.8142C79.9691 94.0141 80.9479 95.415 82.58 95.415ZM82.58 96.1816C80.3119 96.1816 78.9249 94.422 78.9249 91.8142C78.9249 89.2062 80.3119 87.4792 82.58 87.4792C84.8643 87.4792 86.2015 89.2062 86.2015 91.8142C86.2015 94.422 84.8643 96.1816 82.58 96.1816Z" fill="white"/>
<path fill-rule="evenodd" clip-rule="evenodd" d="M92.8729 90.3482V96.0674H91.8777V84.9692H92.8729V90.0544L97.8488 84.855L98.9748 84.9692L93.9988 90.0871L99.236 96.0674L98.094 96.2959L92.8729 90.3482Z" fill="white"/>
<path fill-rule="evenodd" clip-rule="evenodd" d="M100.718 87.5771L101.713 87.4792V88.7496C102.317 87.9686 103.23 87.4792 104.209 87.4792C105.972 87.4792 106.951 88.4415 106.951 90.2011V96.0673H105.939V90.4133C105.939 89.1084 105.449 88.3436 103.949 88.3436C102.954 88.3436 102.153 89.0104 101.713 89.6139V96.0673H100.718V87.5771Z" fill="white"/>
<path fill-rule="evenodd" clip-rule="evenodd" d="M112.414 95.415C114.045 95.415 115.024 94.0305 115.024 91.8142C115.024 89.7772 114.028 88.2458 112.414 88.2458C110.782 88.2458 109.803 89.7772 109.803 91.8142C109.803 94.0141 110.782 95.415 112.414 95.415ZM112.414 96.1816C110.146 96.1816 108.758 94.422 108.758 91.8142C108.758 89.2062 110.146 87.4792 112.414 87.4792C114.698 87.4792 116.035 89.2062 116.035 91.8142C116.035 94.422 114.698 96.1816 112.414 96.1816Z" fill="white"/>
<path fill-rule="evenodd" clip-rule="evenodd" d="M116.752 87.6912L117.877 87.5444L119.721 94.8768L121.973 87.7892H122.723L124.844 94.8768L127.177 87.5444L128.075 87.6912L125.203 96.0674H124.224L122.234 89.7607L120.113 96.0674H119.101L116.752 87.6912Z" fill="white"/>
<path fill-rule="evenodd" clip-rule="evenodd" d="M129.574 84.3188L130.569 84.2046V96.0674H129.574V84.3188Z" fill="white"/>
<path fill-rule="evenodd" clip-rule="evenodd" d="M138.171 90.0871C138.171 89.5814 138.007 89.1409 137.746 88.8309C137.616 88.7005 137.192 88.2458 136.343 88.2458C135.968 88.2458 135.625 88.3274 135.299 88.4904C134.989 88.6516 134.695 88.8963 134.451 89.2062C134.075 89.6792 133.847 90.2176 133.749 90.8517H138.171V90.0871ZM136.507 96.1816C135.022 96.1816 134.108 95.5455 133.569 94.8441C133.048 94.1936 132.656 93.2149 132.656 91.8629C132.656 90.2338 133.243 89.1246 133.945 88.4252C134.581 87.7891 135.397 87.4792 136.36 87.4792C137.486 87.4792 138.138 87.9521 138.448 88.2785C139.133 89.0104 139.15 89.875 139.15 90.4133C139.15 90.8517 139.15 91.1615 139.035 91.6185H133.667V91.8142C133.667 92.173 133.7 92.5156 133.765 92.8561C133.879 93.3616 134.059 93.8348 134.369 94.2425C134.842 94.8767 135.544 95.3008 136.605 95.3008C137.11 95.3008 137.828 95.2029 138.53 94.7625L138.79 95.5292C138.187 95.9043 137.649 96.0349 137.404 96.0838C137.11 96.1489 136.816 96.1816 136.507 96.1816Z" fill="white"/>
<path fill-rule="evenodd" clip-rule="evenodd" d="M144.124 95.3008C144.891 95.3008 145.593 94.8604 145.984 94.3893V88.6027C145.577 88.3926 145.005 88.2458 144.484 88.2458C142.737 88.2458 141.514 89.6467 141.514 91.8142C141.514 94.0305 142.493 95.3008 144.124 95.3008ZM143.863 96.1817C141.873 96.1817 140.469 94.5363 140.469 91.9283C140.469 89.4183 142.118 87.4793 144.484 87.4793C145.185 87.4793 145.641 87.6261 145.984 87.7728V84.3188L146.979 84.2046V96.0674L145.984 96.1817V95.2357C145.577 95.7738 144.76 96.1817 143.863 96.1817Z" fill="white"/>
<path fill-rule="evenodd" clip-rule="evenodd" d="M152.59 95.0724C153.356 95.0724 154.059 94.634 154.451 94.161V88.6026C154.043 88.3925 153.471 88.2458 152.95 88.2458C151.204 88.2458 149.979 89.5488 149.979 91.7163C149.979 93.9163 150.959 95.0724 152.59 95.0724ZM151.97 99.44C150.845 99.44 150.126 99.2767 149.49 99.0159L149.719 98.0228C150.29 98.3655 151.105 98.5612 151.97 98.5612C153.7 98.5612 154.451 97.2725 154.451 95.5292V95.0073C154.059 95.5292 153.194 95.9533 152.329 95.9533C150.339 95.9533 148.935 94.4382 148.935 91.8142C148.935 89.3202 150.584 87.4792 152.95 87.4792C153.651 87.4792 154.123 87.6422 154.467 87.7891L155.445 87.4792V95.5292C155.445 98.2675 153.83 99.44 151.97 99.44Z" fill="white"/>
<path fill-rule="evenodd" clip-rule="evenodd" d="M163.045 90.0871C163.045 89.5814 162.883 89.1409 162.621 88.8309C162.491 88.7005 162.067 88.2458 161.218 88.2458C160.843 88.2458 160.499 88.3274 160.175 88.4904C159.864 88.6516 159.57 88.8963 159.326 89.2062C158.951 89.6792 158.722 90.2176 158.624 90.8517H163.045V90.0871ZM161.382 96.1816C159.896 96.1816 158.984 95.5455 158.445 94.8441C157.922 94.1936 157.531 93.2149 157.531 91.8629C157.531 90.2338 158.119 89.1246 158.82 88.4252C159.456 87.7891 160.273 87.4792 161.235 87.4792C162.36 87.4792 163.012 87.9521 163.323 88.2785C164.008 89.0104 164.025 89.875 164.025 90.4133C164.025 90.8517 164.025 91.1615 163.91 91.6185H158.542V91.8142C158.542 92.173 158.574 92.5156 158.64 92.8561C158.755 93.3616 158.935 93.8348 159.244 94.2425C159.718 94.8767 160.419 95.3008 161.48 95.3008C161.985 95.3008 162.703 95.2029 163.405 94.7625L163.666 95.5292C163.061 95.9043 162.524 96.0349 162.278 96.0838C161.985 96.1489 161.692 96.1816 161.382 96.1816Z" fill="white"/>
<path fill-rule="evenodd" clip-rule="evenodd" d="M167.136 84.3311H166.438V84.1333H168.117L168.062 84.3311H167.364V86.6474H167.136V84.3311Z" fill="white"/>
<path fill-rule="evenodd" clip-rule="evenodd" d="M168.379 84.1089H168.577L169.488 85.479L170.37 84.1089H170.545V86.6474H170.313V84.5246L169.515 85.7787H169.402L168.604 84.5676V86.6474H168.379V84.1089Z" fill="white"/>
<path fill-rule="evenodd" clip-rule="evenodd" d="M92.5381 47.9515L47.5344 3L2.53076 47.9515L33.9772 79.3619H61.0918L92.5381 47.9515Z" stroke="white" stroke-width="3.572"/>
<path fill-rule="evenodd" clip-rule="evenodd" d="M2.53891 79.9347H170.801V79.3618H2.53891V79.9347Z" fill="white"/>
<path fill-rule="evenodd" clip-rule="evenodd" d="M50.9599 66.6895H21.7367L21.8918 66.8444H50.9599V66.6895Z" fill="white"/>
<path fill-rule="evenodd" clip-rule="evenodd" d="M50.9599 66.6895H21.7367L21.8918 66.8444H50.9599V66.6895Z" stroke="white" stroke-width="1.046"/>
<path fill-rule="evenodd" clip-rule="evenodd" d="M50.9599 62.8582H17.9008L18.0539 63.0132H50.9599V62.8582Z" fill="white"/>
<path fill-rule="evenodd" clip-rule="evenodd" d="M50.9599 62.8582H17.9008L18.0539 63.0132H50.9599V62.8582Z" stroke="white" stroke-width="1.046"/>
<path fill-rule="evenodd" clip-rule="evenodd" d="M50.9599 70.5227H25.5747L25.7277 70.6777H50.9599V70.5227Z" fill="white"/>
<path fill-rule="evenodd" clip-rule="evenodd" d="M50.9599 70.5227H25.5747L25.7277 70.6777H50.9599V70.5227Z" stroke="white" stroke-width="1.046"/>
<path fill-rule="evenodd" clip-rule="evenodd" d="M43.3964 59.0265H14.065L14.218 59.1804H43.3964V59.0265Z" fill="white"/>
<path fill-rule="evenodd" clip-rule="evenodd" d="M43.3964 59.0265H14.065L14.218 59.1804H43.3964V59.0265Z" stroke="white" stroke-width="1.046"/>
<path fill-rule="evenodd" clip-rule="evenodd" d="M46.6322 55.1941H10.229L10.3822 55.347H46.6322V55.1941Z" fill="white"/>
<path fill-rule="evenodd" clip-rule="evenodd" d="M46.6322 55.1941H10.229L10.3822 55.347H46.6322V55.1941Z" stroke="white" stroke-width="1.046"/>
<path fill-rule="evenodd" clip-rule="evenodd" d="M50.9599 51.3628H6.39117L6.5463 51.5152H50.9599V51.3628Z" fill="white"/>
<path fill-rule="evenodd" clip-rule="evenodd" d="M50.9599 51.3628H6.39117L6.5463 51.5152H50.9599V51.3628Z" stroke="white" stroke-width="1.046"/>
<path fill-rule="evenodd" clip-rule="evenodd" d="M52.9565 47.531H3.39643L3.24518 47.6839H52.9565V47.531Z" fill="white"/>
<path fill-rule="evenodd" clip-rule="evenodd" d="M52.9565 47.531H3.39643L3.24518 47.6839H52.9565V47.531Z" stroke="white" stroke-width="1.046"/>
<path fill-rule="evenodd" clip-rule="evenodd" d="M52.9564 43.6997H7.23423L7.0791 43.8526H52.9564V43.6997Z" fill="white"/>
<path fill-rule="evenodd" clip-rule="evenodd" d="M52.9564 43.6997H7.23423L7.0791 43.8526H52.9564V43.6997Z" stroke="white" stroke-width="1.046"/>
<path fill-rule="evenodd" clip-rule="evenodd" d="M52.9564 39.8674H11.0701L10.9171 40.0204H52.9564V39.8674Z" fill="white"/>
<path fill-rule="evenodd" clip-rule="evenodd" d="M52.9564 39.8674H11.0701L10.9171 40.0204H52.9564V39.8674Z" stroke="white" stroke-width="1.046"/>
<path fill-rule="evenodd" clip-rule="evenodd" d="M52.9564 36.035H14.9059L14.7529 36.1885H52.9564V36.035Z" fill="white"/>
<path fill-rule="evenodd" clip-rule="evenodd" d="M52.9564 36.035H14.9059L14.7529 36.1885H52.9564V36.035Z" stroke="white" stroke-width="1.046"/>
<path fill-rule="evenodd" clip-rule="evenodd" d="M52.9564 32.2032H18.7441L18.5888 32.3568H52.9564V32.2032Z" fill="white"/>
<path fill-rule="evenodd" clip-rule="evenodd" d="M52.9564 32.2032H18.7441L18.5888 32.3568H52.9564V32.2032Z" stroke="white" stroke-width="1.046"/>
<path fill-rule="evenodd" clip-rule="evenodd" d="M52.9564 28.3718H22.5798L22.4267 28.5253H52.9564V28.3718Z" fill="white"/>
<path fill-rule="evenodd" clip-rule="evenodd" d="M52.9564 28.3718H22.5798L22.4267 28.5253H52.9564V28.3718Z" stroke="white" stroke-width="1.046"/>
<path fill-rule="evenodd" clip-rule="evenodd" d="M49.2942 24.5406H26.4156L26.2626 24.6935H49.2942V24.5406Z" fill="white"/>
<path fill-rule="evenodd" clip-rule="evenodd" d="M49.2942 24.5406H26.4156L26.2626 24.6935H49.2942V24.5406Z" stroke="white" stroke-width="1.046"/>
<path fill-rule="evenodd" clip-rule="evenodd" d="M50.5639 20.7079H30.2536L30.0985 20.8607H50.4293L50.5639 20.7079Z" fill="white"/>
<path fill-rule="evenodd" clip-rule="evenodd" d="M50.5639 20.7079H30.2536L30.0985 20.8607H50.4293L50.5639 20.7079Z" stroke="white" stroke-width="1.046"/>
<path fill-rule="evenodd" clip-rule="evenodd" d="M53.6119 16.8766H34.0874L33.9364 17.029H53.4974C53.5363 16.9786 53.5751 16.927 53.6119 16.8766Z" fill="white"/>
<path fill-rule="evenodd" clip-rule="evenodd" d="M53.6119 16.8766H34.0874L33.9364 17.029H53.4974C53.5363 16.9786 53.5751 16.927 53.6119 16.8766Z" stroke="white" stroke-width="1.046"/>
<path fill-rule="evenodd" clip-rule="evenodd" d="M56.5148 13.0448H37.9234L37.7722 13.1977H56.3984C56.4371 13.1461 56.4759 13.0952 56.5148 13.0448Z" fill="white"/>
<path fill-rule="evenodd" clip-rule="evenodd" d="M56.5148 13.0448H37.9234L37.7722 13.1977H56.3984C56.4371 13.1461 56.4759 13.0952 56.5148 13.0448Z" stroke="white" stroke-width="1.046"/>
<path fill-rule="evenodd" clip-rule="evenodd" d="M53.3076 9.21289H41.7612L41.6081 9.36486H53.4629L53.3076 9.21289Z" fill="white"/>
<path fill-rule="evenodd" clip-rule="evenodd" d="M53.3076 9.21289H41.7612L41.6081 9.36486H53.4629L53.3076 9.21289Z" stroke="white" stroke-width="1.046"/>
<path fill-rule="evenodd" clip-rule="evenodd" d="M49.4718 5.38062H45.5972L45.444 5.53303H49.6248L49.4718 5.38062Z" fill="white"/>
<path fill-rule="evenodd" clip-rule="evenodd" d="M49.4718 5.38062H45.5972L45.444 5.53303H49.6248L49.4718 5.38062Z" stroke="white" stroke-width="1.046"/>
<path fill-rule="evenodd" clip-rule="evenodd" d="M50.9599 74.3563H29.4106L29.5636 74.5071H50.9599V74.3563Z" fill="white"/>
<path fill-rule="evenodd" clip-rule="evenodd" d="M50.9599 74.3563H29.4106L29.5636 74.5071H50.9599V74.3563Z" stroke="white" stroke-width="1.046"/>
<path fill-rule="evenodd" clip-rule="evenodd" d="M33.2464 78.1874L33.4015 78.3405H61.6696L61.8226 78.1874H33.2464Z" fill="white"/>
<path fill-rule="evenodd" clip-rule="evenodd" d="M33.2464 78.1874L33.4015 78.3405H61.6696L61.8226 78.1874H33.2464Z" stroke="white" stroke-width="1.046"/>
<path fill-rule="evenodd" clip-rule="evenodd" d="M11.9173 39.0211V56.8814L12.0704 57.0343V38.8683L11.9173 39.0211Z" fill="white"/>
<path fill-rule="evenodd" clip-rule="evenodd" d="M11.9173 39.0211V56.8814L12.0704 57.0343V38.8683L11.9173 39.0211Z" stroke="white" stroke-width="1.046"/>
<path fill-rule="evenodd" clip-rule="evenodd" d="M15.7551 35.1899V60.7127L15.9085 60.8666V35.036L15.7551 35.1899Z" fill="white"/>
<path fill-rule="evenodd" clip-rule="evenodd" d="M15.7551 35.1899V60.7127L15.9085 60.8666V35.036L15.7551 35.1899Z" stroke="white" stroke-width="1.046"/>
<path fill-rule="evenodd" clip-rule="evenodd" d="M8.08148 42.8527V53.0496L8.23452 53.2036V42.7007L8.08148 42.8527Z" fill="white"/>
<path fill-rule="evenodd" clip-rule="evenodd" d="M8.08148 42.8527V53.0496L8.23452 53.2036V42.7007L8.08148 42.8527Z" stroke="white" stroke-width="1.046"/>
<path fill-rule="evenodd" clip-rule="evenodd" d="M19.5912 31.3576V64.5444L19.7423 64.6974V31.2041L19.5912 31.3576Z" fill="white"/>
<path fill-rule="evenodd" clip-rule="evenodd" d="M19.5912 31.3576V64.5444L19.7423 64.6974V31.2041L19.5912 31.3576Z" stroke="white" stroke-width="1.046"/>
<path fill-rule="evenodd" clip-rule="evenodd" d="M23.427 27.5253V68.378L23.5801 68.5307V27.3724L23.427 27.5253Z" fill="white"/>
<path fill-rule="evenodd" clip-rule="evenodd" d="M23.427 27.5253V68.378L23.5801 68.5307V27.3724L23.427 27.5253Z" stroke="white" stroke-width="1.046"/>
<path fill-rule="evenodd" clip-rule="evenodd" d="M27.2629 23.694V72.2091L27.4161 72.3621V23.5406L27.2629 23.694Z" fill="white"/>
<path fill-rule="evenodd" clip-rule="evenodd" d="M27.2629 23.694V72.2091L27.4161 72.3621V23.5406L27.2629 23.694Z" stroke="white" stroke-width="1.046"/>
<path fill-rule="evenodd" clip-rule="evenodd" d="M31.0988 19.862V76.0424L31.2518 76.1954V19.7087L31.0988 19.862Z" fill="white"/>
<path fill-rule="evenodd" clip-rule="evenodd" d="M31.0988 19.862V76.0424L31.2518 76.1954V19.7087L31.0988 19.862Z" stroke="white" stroke-width="1.046"/>
<path fill-rule="evenodd" clip-rule="evenodd" d="M4.24353 46.6859V49.2173L4.39672 49.3707V46.532L4.24353 46.6859Z" fill="white"/>
<path fill-rule="evenodd" clip-rule="evenodd" d="M4.24353 46.6859V49.2173L4.39672 49.3707V46.532L4.24353 46.6859Z" stroke="white" stroke-width="1.046"/>
<path fill-rule="evenodd" clip-rule="evenodd" d="M34.9367 16.0293V79.3619H35.0899V15.876L34.9367 16.0293Z" fill="white"/>
<path fill-rule="evenodd" clip-rule="evenodd" d="M34.9367 16.0293V79.3619H35.0899V15.876L34.9367 16.0293Z" stroke="white" stroke-width="1.046"/>
<path fill-rule="evenodd" clip-rule="evenodd" d="M38.7726 12.1974V79.3619H38.9256V12.0446L38.7726 12.1974Z" fill="white"/>
<path fill-rule="evenodd" clip-rule="evenodd" d="M38.7726 12.1974V79.3619H38.9256V12.0446L38.7726 12.1974Z" stroke="white" stroke-width="1.046"/>
<path fill-rule="evenodd" clip-rule="evenodd" d="M42.6084 8.36563V79.3618H42.7616V8.21277L42.6084 8.36563Z" fill="white"/>
<path fill-rule="evenodd" clip-rule="evenodd" d="M42.6084 8.36563V79.3618H42.7616V8.21277L42.6084 8.36563Z" stroke="white" stroke-width="1.046"/>
<path fill-rule="evenodd" clip-rule="evenodd" d="M46.4443 4.53335V79.3619H46.5973V4.38049L46.4443 4.53335Z" fill="white"/>
<path fill-rule="evenodd" clip-rule="evenodd" d="M46.4443 4.53335V79.3619H46.5973V4.38049L46.4443 4.53335Z" stroke="white" stroke-width="1.046"/>
<path fill-rule="evenodd" clip-rule="evenodd" d="M50.4354 20.8536V6.34193L50.2821 6.18848V20.9969L50.4354 20.8536Z" fill="white"/>
<path fill-rule="evenodd" clip-rule="evenodd" d="M50.4354 20.8536V6.34193L50.2821 6.18848V20.9969L50.4354 20.8536Z" stroke="white" stroke-width="1.046"/>
<path fill-rule="evenodd" clip-rule="evenodd" d="M54.2732 16.0044V10.1749L54.1181 10.0215V16.2074C54.1692 16.1404 54.2202 16.0718 54.2732 16.0044Z" fill="white"/>
<path fill-rule="evenodd" clip-rule="evenodd" d="M54.2732 16.0044V10.1749L54.1181 10.0215V16.2074C54.1692 16.1404 54.2202 16.0718 54.2732 16.0044Z" stroke="white" stroke-width="1.046"/>
<path fill-rule="evenodd" clip-rule="evenodd" d="M15.7551 36.035V36.1885H19.5911V43.8525H19.7422V36.1885H23.58V36.035H15.7551Z" fill="white"/>
<path fill-rule="evenodd" clip-rule="evenodd" d="M15.7551 36.035V36.1885H19.5911V43.8525H19.7422V36.1885H23.58V36.035H15.7551Z" stroke="white" stroke-width="1.046"/>
<path fill-rule="evenodd" clip-rule="evenodd" d="M23.427 36.035V43.8525H23.5801V40.0204H31.0988V43.8525H31.2518V36.035H31.0988V39.8674H23.5801V36.035H23.427Z" fill="white"/>
<path fill-rule="evenodd" clip-rule="evenodd" d="M23.427 36.035V43.8525H23.5801V40.0204H31.0988V43.8525H31.2518V36.035H31.0988V39.8674H23.5801V36.035H23.427Z" stroke="white" stroke-width="1.046"/>
<path fill-rule="evenodd" clip-rule="evenodd" d="M31.0988 36.035V43.8525H38.9256V43.6997H31.2518V36.035H31.0988Z" fill="white"/>
<path fill-rule="evenodd" clip-rule="evenodd" d="M31.0988 36.035V43.8525H38.9256V43.6997H31.2518V36.035H31.0988Z" stroke="white" stroke-width="1.046"/>
<path fill-rule="evenodd" clip-rule="evenodd" d="M38.8562 78.1995H42.6921V74.3684H38.8562V78.1995Z" fill="white"/>
<mask id="mask0" mask-type="alpha" maskUnits="userSpaceOnUse" x="11" y="20" width="55" height="55">
<path d="M15.8552 59.0468H19.6912V55.2153H15.8552V59.0468ZM27.3751 47.5931H31.2131V43.7624H27.3751V47.5931ZM64.8356 27.4059L50.1128 21.1654L46.2871 25.794V32.2623H42.7044V36.0931H46.2871V39.9265H42.7044V36.0931H38.8665V39.9265H35.0305V43.7582H38.8665V43.7771H38.8562V47.5834H35.0305V51.4061H27.3751V47.5931H23.5373V51.4254H27.3751V55.2388H31.1845V59.0426H38.8562V55.247H38.8665V55.2133H42.6921V51.4151H42.7207V51.4223H46.2871V55.2266H42.7084V59.0508H38.8562V62.8846H35.0367V66.716H31.1988V74.3805H35.0367V70.5472H38.8726V66.716H42.7084V62.8846H46.5464V56.4806C48.061 55.662 56.0045 51.1562 61.8266 43.75C64.8969 39.8417 65.7728 34.543 65.7728 32.2812C65.7728 30.0193 64.8356 27.4059 64.8356 27.4059ZM11.995 47.5931H15.8309V43.7624H11.995V47.5931ZM23.5495 39.9611H27.3854V36.1298H23.5495V39.9611ZM42.6921 24.6165H46.5281V20.7863H42.6921V24.6165ZM38.8562 32.2709H42.6921V28.4402H38.8562V32.2709ZM31.1927 28.4482H35.0305V24.6165H31.1927V28.4482ZM35.0203 36.1043H38.8562V32.2709H35.0203V36.1043ZM23.5107 66.7098H27.3467V62.8766H31.1845V59.0426H23.5107V66.7098Z" fill="white"/>
</mask>
<g mask="url(#mask0)">
<path fill-rule="evenodd" clip-rule="evenodd" d="M15.8552 59.0468H19.6912V55.2153H15.8552V59.0468ZM27.3751 47.5931H31.2131V43.7624H27.3751V47.5931ZM64.8356 27.4059L50.1128 21.1654L46.2871 25.794V32.2623H42.7044V36.0931H46.2871V39.9265H42.7044V36.0931H38.8665V39.9265H35.0305V43.7582H38.8665V43.7771H38.8562V47.5834H35.0305V51.4061H27.3751V47.5931H23.5373V51.4254H27.3751V55.2388H31.1845V59.0426H38.8562V55.247H38.8665V55.2133H42.6921V51.4151H42.7207V51.4223H46.2871V55.2266H42.7084V59.0508H38.8562V62.8846H35.0367V66.716H31.1988V74.3805H35.0367V70.5472H38.8726V66.716H42.7084V62.8846H46.5464V56.4806C48.061 55.662 56.0045 51.1562 61.8266 43.75C64.8969 39.8417 65.7728 34.543 65.7728 32.2812C65.7728 30.0193 64.8356 27.4059 64.8356 27.4059ZM11.995 47.5931H15.8309V43.7624H11.995V47.5931ZM23.5495 39.9611H27.3854V36.1298H23.5495V39.9611ZM42.6921 24.6165H46.5281V20.7863H42.6921V24.6165ZM38.8562 32.2709H42.6921V28.4402H38.8562V32.2709ZM31.1927 28.4482H35.0305V24.6165H31.1927V28.4482ZM35.0203 36.1043H38.8562V32.2709H35.0203V36.1043ZM23.5107 66.7098H27.3467V62.8766H31.1845V59.0426H23.5107V66.7098Z" fill="white"/>
</g>
<path fill-rule="evenodd" clip-rule="evenodd" d="M71.5949 10.5311C71.5949 9.86031 71.052 9.31787 70.3803 9.31787C69.7106 9.31787 69.1635 9.86031 69.1635 10.5311C69.1635 11.2009 69.7106 11.7428 70.3803 11.7428C71.052 11.7428 71.5949 11.2009 71.5949 10.5311Z" fill="white"/>
<mask id="mask1" mask-type="alpha" maskUnits="userSpaceOnUse" x="72" y="40" width="99" height="36">
<path d="M169.03 72.3846C168.739 72.3846 168.482 72.4784 168.254 72.6638C168.026 72.8515 167.882 73.0879 167.822 73.3776C167.76 73.6671 167.8 73.9056 167.949 74.0952C168.096 74.2848 168.315 74.3807 168.604 74.3807C168.893 74.3807 169.152 74.2848 169.38 74.0952C169.61 73.9056 169.756 73.6671 169.819 73.3776C169.88 73.0879 169.835 72.8515 169.686 72.6638C169.537 72.4784 169.318 72.3846 169.03 72.3846ZM135.561 72.3846C135.274 72.3846 135.015 72.4784 134.788 72.6638C134.559 72.8515 134.416 73.0879 134.355 73.3776C134.292 73.6671 134.335 73.9056 134.482 74.0952C134.629 74.2848 134.847 74.3807 135.137 74.3807C135.427 74.3807 135.686 74.2848 135.915 74.0952C136.143 73.9056 136.29 73.6671 136.354 73.3776C136.413 73.0879 136.368 72.8515 136.219 72.6638C136.07 72.4784 135.851 72.3846 135.561 72.3846ZM123.931 75.0413H130.897L138.02 41.5353H131.056L123.931 75.0413ZM166.421 58.4026C165.344 57.3872 163.606 56.5756 161.211 55.9699L155.725 54.5835C153.602 54.0528 152.244 53.591 151.652 53.1963C150.711 52.6051 150.37 51.7115 150.627 50.514C150.901 49.2111 151.655 48.1957 152.892 47.4687C154.129 46.7409 155.649 46.377 157.456 46.377C159.079 46.377 160.377 46.6577 161.346 47.218C162.802 48.0668 163.372 49.4998 163.054 51.5143H169.79C170.428 47.9536 169.698 45.2371 167.603 43.3653C165.512 41.4935 162.698 40.5581 159.162 40.5581C154.928 40.5581 151.507 41.5506 148.898 43.5356C146.287 45.5205 144.664 48.0137 144.027 51.0141C143.329 54.3025 143.944 56.7203 145.871 58.2659C147.01 59.1896 149.239 60.0458 152.563 60.8341L155.954 61.6308C157.94 62.0834 159.353 62.6074 160.188 63.1988C161.037 63.8044 161.339 64.6607 161.096 65.7658C160.702 67.6622 159.451 68.9569 157.342 69.6544C156.233 70.0172 154.854 70.2007 153.2 70.2007C150.438 70.2007 148.633 69.5094 147.782 68.131C147.328 67.3726 147.153 66.2289 147.259 64.6994H140.567C139.826 68.1842 140.492 70.9247 142.57 72.9166C144.65 74.9088 147.874 75.906 152.244 75.906C156.523 75.906 160.051 74.8946 162.828 72.8699C165.601 70.8471 167.316 68.3044 167.97 65.2438C168.607 62.2587 168.092 59.9786 166.421 58.4026ZM113.736 52.0372C113.328 53.9168 112.354 55.1747 110.823 55.811C109.96 56.1738 108.737 56.3554 107.159 56.3554H99.2157L101.128 47.3547H109.276C110.793 47.3547 111.893 47.5514 112.575 47.9459C113.773 48.6433 114.161 50.007 113.736 52.0372ZM119.949 44.7406C119.281 43.7099 118.373 42.9299 117.217 42.3994C116.066 41.8687 114.32 41.5813 111.983 41.5353H95.5287L88.4061 75.0413H95.2572L98.0316 61.9041H105.271C107.332 61.9041 108.665 62.2587 109.264 62.9704C109.864 63.684 109.952 65.1073 109.525 67.2442L108.913 70.3598C108.714 71.3446 108.606 72.305 108.594 73.2449C108.594 73.6996 108.625 74.2992 108.684 75.0413H116.399L116.558 74.2013C115.98 73.7914 115.692 73.1553 115.692 72.2907C115.692 71.7462 115.851 70.7083 116.17 69.1772L116.65 66.9261C117.15 64.5772 117.199 62.8318 116.797 61.6879C116.394 60.5435 115.49 59.6606 114.077 59.0387C116.066 58.4026 117.623 57.3146 118.754 55.7763C119.883 54.2388 120.624 52.6734 120.973 51.0819C121.247 49.7637 121.28 48.5899 121.077 47.559C120.871 46.5288 120.496 45.5894 119.949 44.7406ZM83.4822 72.3846C83.1924 72.3846 82.935 72.4784 82.7065 72.6638C82.4778 72.8515 82.3349 73.0879 82.2758 73.3776C82.2104 73.6671 82.2531 73.9056 82.4004 74.0952C82.5492 74.2848 82.7657 74.3807 83.0556 74.3807C83.3454 74.3807 83.6046 74.2848 83.8334 74.0952C84.064 73.9056 84.2089 73.6671 84.2723 73.3776C84.3335 73.0879 84.2864 72.8515 84.1395 72.6638C83.9905 72.4784 83.7702 72.3846 83.4822 72.3846ZM72.1786 75.0413H79.1442L86.2668 41.5353H79.3034L72.1786 75.0413ZM119.812 72.3846C119.522 72.3846 119.265 72.4784 119.036 72.6638C118.809 72.8515 118.665 73.0879 118.605 73.3776C118.542 73.6671 118.583 73.9056 118.732 74.0952C118.879 74.2848 119.097 74.3807 119.387 74.3807C119.677 74.3807 119.934 74.2848 120.163 74.0952C120.394 73.9056 120.539 73.6671 120.602 73.3776C120.663 73.0879 120.618 72.8515 120.469 72.6638C120.32 72.4784 120.102 72.3846 119.812 72.3846Z" fill="white"/>
</mask>
<g mask="url(#mask1)">
<path fill-rule="evenodd" clip-rule="evenodd" d="M169.03 72.3846C168.739 72.3846 168.482 72.4784 168.254 72.6638C168.026 72.8515 167.882 73.0879 167.822 73.3776C167.76 73.6671 167.8 73.9056 167.949 74.0952C168.096 74.2848 168.315 74.3807 168.604 74.3807C168.893 74.3807 169.152 74.2848 169.38 74.0952C169.61 73.9056 169.756 73.6671 169.819 73.3776C169.88 73.0879 169.835 72.8515 169.686 72.6638C169.537 72.4784 169.318 72.3846 169.03 72.3846ZM135.561 72.3846C135.274 72.3846 135.015 72.4784 134.788 72.6638C134.559 72.8515 134.416 73.0879 134.355 73.3776C134.292 73.6671 134.335 73.9056 134.482 74.0952C134.629 74.2848 134.847 74.3807 135.137 74.3807C135.427 74.3807 135.686 74.2848 135.915 74.0952C136.143 73.9056 136.29 73.6671 136.354 73.3776C136.413 73.0879 136.368 72.8515 136.219 72.6638C136.07 72.4784 135.851 72.3846 135.561 72.3846ZM123.931 75.0413H130.897L138.02 41.5353H131.056L123.931 75.0413ZM166.421 58.4026C165.344 57.3872 163.606 56.5756 161.211 55.9699L155.725 54.5835C153.602 54.0528 152.244 53.591 151.652 53.1963C150.711 52.6051 150.37 51.7115 150.627 50.514C150.901 49.2111 151.655 48.1957 152.892 47.4687C154.129 46.7409 155.649 46.377 157.456 46.377C159.079 46.377 160.377 46.6577 161.346 47.218C162.802 48.0668 163.372 49.4998 163.054 51.5143H169.79C170.428 47.9536 169.698 45.2371 167.603 43.3653C165.512 41.4935 162.698 40.5581 159.162 40.5581C154.928 40.5581 151.507 41.5506 148.898 43.5356C146.287 45.5205 144.664 48.0137 144.027 51.0141C143.329 54.3025 143.944 56.7203 145.871 58.2659C147.01 59.1896 149.239 60.0458 152.563 60.8341L155.954 61.6308C157.94 62.0834 159.353 62.6074 160.188 63.1988C161.037 63.8044 161.339 64.6607 161.096 65.7658C160.702 67.6622 159.451 68.9569 157.342 69.6544C156.233 70.0172 154.854 70.2007 153.2 70.2007C150.438 70.2007 148.633 69.5094 147.782 68.131C147.328 67.3726 147.153 66.2289 147.259 64.6994H140.567C139.826 68.1842 140.492 70.9247 142.57 72.9166C144.65 74.9088 147.874 75.906 152.244 75.906C156.523 75.906 160.051 74.8946 162.828 72.8699C165.601 70.8471 167.316 68.3044 167.97 65.2438C168.607 62.2587 168.092 59.9786 166.421 58.4026ZM113.736 52.0372C113.328 53.9168 112.354 55.1747 110.823 55.811C109.96 56.1738 108.737 56.3554 107.159 56.3554H99.2157L101.128 47.3547H109.276C110.793 47.3547 111.893 47.5514 112.575 47.9459C113.773 48.6433 114.161 50.007 113.736 52.0372ZM119.949 44.7406C119.281 43.7099 118.373 42.9299 117.217 42.3994C116.066 41.8687 114.32 41.5813 111.983 41.5353H95.5287L88.4061 75.0413H95.2572L98.0316 61.9041H105.271C107.332 61.9041 108.665 62.2587 109.264 62.9704C109.864 63.684 109.952 65.1073 109.525 67.2442L108.913 70.3598C108.714 71.3446 108.606 72.305 108.594 73.2449C108.594 73.6996 108.625 74.2992 108.684 75.0413H116.399L116.558 74.2013C115.98 73.7914 115.692 73.1553 115.692 72.2907C115.692 71.7462 115.851 70.7083 116.17 69.1772L116.65 66.9261C117.15 64.5772 117.199 62.8318 116.797 61.6879C116.394 60.5435 115.49 59.6606 114.077 59.0387C116.066 58.4026 117.623 57.3146 118.754 55.7763C119.883 54.2388 120.624 52.6734 120.973 51.0819C121.247 49.7637 121.28 48.5899 121.077 47.559C120.871 46.5288 120.496 45.5894 119.949 44.7406ZM83.4822 72.3846C83.1924 72.3846 82.935 72.4784 82.7065 72.6638C82.4778 72.8515 82.3349 73.0879 82.2758 73.3776C82.2104 73.6671 82.2531 73.9056 82.4004 74.0952C82.5492 74.2848 82.7657 74.3807 83.0556 74.3807C83.3454 74.3807 83.6046 74.2848 83.8334 74.0952C84.064 73.9056 84.2089 73.6671 84.2723 73.3776C84.3335 73.0879 84.2864 72.8515 84.1395 72.6638C83.9905 72.4784 83.7702 72.3846 83.4822 72.3846ZM72.1786 75.0413H79.1442L86.2668 41.5353H79.3034L72.1786 75.0413ZM119.812 72.3846C119.522 72.3846 119.265 72.4784 119.036 72.6638C118.809 72.8515 118.665 73.0879 118.605 73.3776C118.542 73.6671 118.583 73.9056 118.732 74.0952C118.879 74.2848 119.097 74.3807 119.387 74.3807C119.677 74.3807 119.934 74.2848 120.163 74.0952C120.394 73.9056 120.539 73.6671 120.602 73.3776C120.663 73.0879 120.618 72.8515 120.469 72.6638C120.32 72.4784 120.102 72.3846 119.812 72.3846Z" fill="white"/>
</g>
<mask id="mask2" mask-type="alpha" maskUnits="userSpaceOnUse" x="42" y="6" width="37" height="74">
<path d="M69.9658 12.7032C68.7675 12.7032 67.7937 11.732 67.7937 10.5341C67.7937 9.97029 68.0101 9.45952 68.3613 9.07366H71.5704C71.9216 9.45952 72.138 9.97029 72.138 10.5341C72.138 11.732 71.1663 12.7032 69.9658 12.7032ZM58.1049 77.437C57.6376 77.278 56.8026 76.5521 56.0228 76.6031C55.243 76.6541 53.5752 77.641 52.8463 77.486C51.8563 77.278 51.456 75.6855 52.2216 70.0517C53.3138 61.9894 55.5533 58.9733 55.5533 58.9733C55.5533 58.9733 55.3981 62.0935 55.1879 63.7573C54.9796 65.4212 54.408 69.1158 54.408 69.1158C54.408 69.1158 56.0228 68.8038 56.9067 68.5429C57.7907 68.284 59.0952 67.713 59.0952 67.713C59.0952 67.713 59.1993 71.2445 59.3013 72.7044C59.4074 74.1603 59.9791 77.486 59.9791 77.486C59.9791 77.486 58.5725 77.5919 58.1049 77.437ZM76.9783 8.83916H74.1672V7.98283C74.1672 7.98283 74.1672 6.96887 72.3196 6.96887C69.8536 6.96887 65.3256 6.96887 64.4825 6.96887C63.4659 6.96887 61.4367 6.96887 60.8896 7.43578C60.3444 7.90327 51.2051 20.0725 51.2051 20.0725L65.7319 26.314C65.7319 26.314 67.3711 30.2135 67.0629 33.5687C66.7487 36.923 65.0296 42.7728 60.6548 47.5319C56.2841 52.2894 49.1758 57.437 49.1758 57.437V62.9049H46.5504V63.6798H46.3054V66.7505H42.682V70.5839H46.3054V71.791C46.3054 71.791 47.6121 71.0203 48.7389 70.5635H49.929C49.8678 71.3302 49.7208 73.2366 49.7208 73.9789C49.7208 74.9148 49.6433 76.6315 49.6433 76.6315C49.6433 76.6315 49.488 77.5656 48.3939 77.5656C47.2997 77.5656 46.4422 76.2401 46.4422 76.2401V79.3618H72.683C72.683 79.3618 72.3726 77.019 70.3395 76.8619C68.3081 76.707 66.0463 77.1741 64.7173 76.4725C63.3904 75.7732 61.9838 74.6007 61.4367 70.388C60.8896 66.1776 60.8509 60.3536 61.3325 57.5153C62.688 49.5597 69.6371 42.5393 69.6371 35.9865C69.6371 29.2256 67.2935 26.1314 67.4242 23.9466C67.5508 21.8317 73.9324 12.8972 73.9324 12.8972H77.4477C77.4477 12.8972 78.7748 13.0523 78.8543 13.9107C78.8543 13.9107 78.8543 11.8055 78.8543 10.7135C78.8543 9.62056 77.8376 8.83916 76.9783 8.83916Z" fill="white"/>
</mask>
<g mask="url(#mask2)">
<path fill-rule="evenodd" clip-rule="evenodd" d="M69.9658 12.7032C68.7675 12.7032 67.7937 11.732 67.7937 10.5341C67.7937 9.97029 68.0101 9.45952 68.3613 9.07366H71.5704C71.9216 9.45952 72.138 9.97029 72.138 10.5341C72.138 11.732 71.1663 12.7032 69.9658 12.7032ZM58.1049 77.437C57.6376 77.278 56.8026 76.5521 56.0228 76.6031C55.243 76.6541 53.5752 77.641 52.8463 77.486C51.8563 77.278 51.456 75.6855 52.2216 70.0517C53.3138 61.9894 55.5533 58.9733 55.5533 58.9733C55.5533 58.9733 55.3981 62.0935 55.1879 63.7573C54.9796 65.4212 54.408 69.1158 54.408 69.1158C54.408 69.1158 56.0228 68.8038 56.9067 68.5429C57.7907 68.284 59.0952 67.713 59.0952 67.713C59.0952 67.713 59.1993 71.2445 59.3013 72.7044C59.4074 74.1603 59.9791 77.486 59.9791 77.486C59.9791 77.486 58.5725 77.5919 58.1049 77.437ZM76.9783 8.83916H74.1672V7.98283C74.1672 7.98283 74.1672 6.96887 72.3196 6.96887C69.8536 6.96887 65.3256 6.96887 64.4825 6.96887C63.4659 6.96887 61.4367 6.96887 60.8896 7.43578C60.3444 7.90327 51.2051 20.0725 51.2051 20.0725L65.7319 26.314C65.7319 26.314 67.3711 30.2135 67.0629 33.5687C66.7487 36.923 65.0296 42.7728 60.6548 47.5319C56.2841 52.2894 49.1758 57.437 49.1758 57.437V62.9049H46.5504V63.6798H46.3054V66.7505H42.682V70.5839H46.3054V71.791C46.3054 71.791 47.6121 71.0203 48.7389 70.5635H49.929C49.8678 71.3302 49.7208 73.2366 49.7208 73.9789C49.7208 74.9148 49.6433 76.6315 49.6433 76.6315C49.6433 76.6315 49.488 77.5656 48.3939 77.5656C47.2997 77.5656 46.4422 76.2401 46.4422 76.2401V79.3618H72.683C72.683 79.3618 72.3726 77.019 70.3395 76.8619C68.3081 76.707 66.0463 77.1741 64.7173 76.4725C63.3904 75.7732 61.9838 74.6007 61.4367 70.388C60.8896 66.1776 60.8509 60.3536 61.3325 57.5153C62.688 49.5597 69.6371 42.5393 69.6371 35.9865C69.6371 29.2256 67.2935 26.1314 67.4242 23.9466C67.5508 21.8317 73.9324 12.8972 73.9324 12.8972H77.4477C77.4477 12.8972 78.7748 13.0523 78.8543 13.9107C78.8543 13.9107 78.8543 11.8055 78.8543 10.7135C78.8543 9.62056 77.8376 8.83916 76.9783 8.83916Z" fill="white"/>
</g>
<mask id="mask3" mask-type="alpha" maskUnits="userSpaceOnUse" x="2" y="109" width="26" height="14">
<path d="M2 109.576H27.8468V123H2V109.576Z" fill="white"/>
</mask>
<g mask="url(#mask3)">
<path fill-rule="evenodd" clip-rule="evenodd" d="M5.55211 118.323H9.31354L7.43327 112.365L5.55211 118.323ZM9.82581 119.973H5.03969L4.16596 122.744H2L6.48302 109.823H8.80112L13.3024 122.744H10.7006L9.82581 119.973Z" fill="white"/>
<path fill-rule="evenodd" clip-rule="evenodd" d="M27.8468 122.25C27.2394 122.611 25.7951 123.009 24.5038 123.009C19.8686 123.009 17.9692 119.594 17.9692 116.027C17.9692 112.441 20.7425 109.576 24.7886 109.576C26.0993 109.576 27.1057 109.823 27.8468 110.202L27.2577 111.986C26.821 111.588 25.8523 111.342 24.7886 111.342C22.1869 111.342 20.4393 113.503 20.4393 116.027C20.4393 118.796 21.8633 121.225 24.5038 121.225C25.9288 121.225 26.6882 120.866 27.3915 120.466L27.8468 122.25Z" fill="white"/>
</g>
<path fill-rule="evenodd" clip-rule="evenodd" d="M31.8888 118.323H35.6501L33.77 112.365L31.8888 118.323ZM36.1627 119.973H31.3764L30.5027 122.744H28.3367L32.8197 109.823H35.1379L39.6392 122.744H37.0375L36.1627 119.973Z" fill="white"/>
<mask id="mask4" mask-type="alpha" maskUnits="userSpaceOnUse" x="41" y="109" width="67" height="14">
<path d="M41.307 109.576H107.164V123H41.307V109.576Z" fill="white"/>
</mask>
<g mask="url(#mask4)">
<path fill-rule="evenodd" clip-rule="evenodd" d="M43.321 113.789V122.744H41.307V109.823H43.1688L49.5515 118.739V109.823H51.5837V122.744H49.7026L43.321 113.789Z" fill="white"/>
<path fill-rule="evenodd" clip-rule="evenodd" d="M63.184 116.027C63.184 113.503 62.1778 111.342 59.7085 111.342C57.2395 111.342 56.2136 113.503 56.2136 116.027C56.2136 118.55 57.2395 121.225 59.7085 121.225C62.1778 121.225 63.184 118.55 63.184 116.027ZM65.6349 116.027C65.6349 120.069 63.4505 123.009 59.7085 123.009C55.9849 123.009 53.7433 120.069 53.7433 116.027C53.7433 112.233 56.2319 109.576 59.7085 109.576C63.2035 109.576 65.6349 112.233 65.6349 116.027Z" fill="white"/>
<path fill-rule="evenodd" clip-rule="evenodd" d="M69.8107 113.789V122.744H67.7969V109.823H69.6587L76.0413 118.739V109.823H78.0734V122.744H76.1921L69.8107 113.789Z" fill="white"/>
<path fill-rule="evenodd" clip-rule="evenodd" d="M94.4408 122.25C93.8333 122.611 92.389 123.009 91.0977 123.009C86.4628 123.009 84.5632 119.594 84.5632 116.027C84.5632 112.441 87.3364 109.576 91.3827 109.576C92.6932 109.576 93.6997 109.823 94.4408 110.202L93.8517 111.986C93.4149 111.588 92.4462 111.342 91.3827 111.342C88.7808 111.342 87.0333 113.503 87.0333 116.027C87.0333 118.796 88.4573 121.225 91.0977 121.225C92.5229 121.225 93.2821 120.866 93.9854 120.466L94.4408 122.25Z" fill="white"/>
<path fill-rule="evenodd" clip-rule="evenodd" d="M104.713 116.027C104.713 113.503 103.707 111.342 101.238 111.342C98.7686 111.342 97.7427 113.503 97.7427 116.027C97.7427 118.55 98.7686 121.225 101.238 121.225C103.707 121.225 104.713 118.55 104.713 116.027ZM107.164 116.027C107.164 120.069 104.98 123.009 101.238 123.009C97.5142 123.009 95.2726 120.069 95.2726 116.027C95.2726 112.233 97.7611 109.576 101.238 109.576C104.733 109.576 107.164 112.233 107.164 116.027Z" fill="white"/>
</g>
<path fill-rule="evenodd" clip-rule="evenodd" d="M119.165 113.523L115.708 119.575H114.834L111.491 114.074V122.744H109.477V109.823H111.339L115.556 116.672L119.468 109.823H121.482V122.744H119.165V113.523Z" fill="white"/>
<path fill-rule="evenodd" clip-rule="evenodd" d="M128.581 109.823C131.639 109.823 133.671 110.981 133.671 113.997C133.671 116.292 132.361 118.437 129.607 118.437H128.162L128.733 116.672H129.17C130.613 116.672 131.202 115.495 131.202 113.997C131.202 112.251 130.024 111.588 128.429 111.588H127.289V122.744H124.972V109.823H128.581Z" fill="white"/>
<path fill-rule="evenodd" clip-rule="evenodd" d="M137.713 118.323H141.475L139.594 112.365L137.713 118.323ZM141.987 119.973H137.201L136.327 122.744H134.161L138.644 109.823H140.962L145.464 122.744H142.862L141.987 119.973Z" fill="white"/>
<path fill-rule="evenodd" clip-rule="evenodd" d="M149.145 113.789V122.744H147.131V109.823H148.993L155.376 118.739V109.823H157.409V122.744H155.527L149.145 113.789Z" fill="white"/>
<path fill-rule="evenodd" clip-rule="evenodd" d="M165.819 122.744H163.501V117.848L159.302 110.069L161.658 109.766L164.812 116.027L167.812 109.766L169.863 110.069L165.819 117.83V122.744Z" fill="white"/>
</svg>
