<svg width="69" height="98" viewBox="0 0 69 98" fill="none" xmlns="http://www.w3.org/2000/svg">
<path d="M47.2105 0H45.3947H7.26316C3.26842 0 0 3.26667 0 7.25926V90.7407C0 94.7333 3.26842 98 7.26316 98H61.7368C65.7316 98 69 94.7333 69 90.7407V25.4074L47.2105 0ZM47.2105 5.44444L64.2789 25.4074H50.8421C49.0263 25.4074 47.2105 23.5926 47.2105 21.7778V5.44444ZM65.3684 90.7407C65.3684 92.5556 63.9158 94.3704 61.7368 94.3704H7.26316C5.44737 94.3704 3.63158 92.9185 3.63158 90.7407V7.25926C3.63158 5.44444 5.08421 3.62963 7.26316 3.62963H43.5789V21.7778C43.5789 25.7704 46.8474 29.037 50.8421 29.037H65.3684V90.7407Z" fill="white"/>
<path d="M39.9473 66.4222C42.1263 63.5185 43.5789 60.2518 43.5789 56.2592C43.5789 47.1852 36.3158 39.9259 27.2368 39.9259C18.1579 39.9259 10.8947 47.1852 10.8947 56.2592C10.8947 65.3333 18.1579 72.5926 27.2368 72.5926C31.2316 72.5926 34.5 71.1407 37.4052 68.9629L56.6526 88.2L59.1947 85.6592L39.9473 66.4222ZM27.2368 68.9629C20.3368 68.9629 14.5263 63.1555 14.5263 56.2592C14.5263 49.3629 20.3368 43.5555 27.2368 43.5555C34.1368 43.5555 39.9473 49.3629 39.9473 56.2592C39.9473 63.1555 34.1368 68.9629 27.2368 68.9629Z" fill="#E44331"/>
<path d="M30.3372 61H33.5232L29.3652 49.12H25.6572L21.4812 61H24.5952L25.4232 58.318H29.5272L30.3372 61ZM26.0892 56.212L26.9712 53.35L27.4572 51.496H27.4932L28.0152 53.368L28.8792 56.212H26.0892Z" fill="white"/>
</svg>
