<svg width="84" height="98" viewBox="0 0 84 98" fill="none" xmlns="http://www.w3.org/2000/svg">
<g clip-path="url(#clip0)">
<path d="M62.087 94.3704H54.7826V98H62.087V94.3704Z" fill="white"/>
<path d="M65.7391 98H69.3913C73.4087 98 76.6957 94.7333 76.6957 90.7407V87.1111H73.0435V90.7407C73.0435 92.5555 71.5826 94.3703 69.3913 94.3703H65.7391V98Z" fill="white"/>
<path d="M51.1304 94.3704H43.8261V98H51.1304V94.3704Z" fill="white"/>
<path d="M40.1739 94.3704H32.8696V98H40.1739V94.3704Z" fill="white"/>
<path d="M29.2174 94.3704H21.9131V98H29.2174V94.3704Z" fill="white"/>
<path d="M18.2609 98H14.6087C10.5913 98 7.30435 94.7333 7.30435 90.7407V87.1111H10.9565V90.7407C10.9565 92.5555 12.7826 94.3703 14.6087 94.3703H18.2609V98Z" fill="white"/>
<path d="M76.6956 76.2222H73.0435V83.4814H76.6956V76.2222Z" fill="white"/>
<path d="M10.9565 76.2222H7.30435V83.4814H10.9565V76.2222Z" fill="white"/>
<path d="M76.6956 65.3334H73.0435V72.5926H76.6956V65.3334Z" fill="white"/>
<path d="M10.9565 65.3334H7.30435V72.5926H10.9565V65.3334Z" fill="white"/>
<path d="M54.7826 0H14.6087C10.5913 0 7.30435 3.26667 7.30435 7.25926V54.4444H10.9565V7.25926C10.9565 5.44444 12.4174 3.62963 14.6087 3.62963H51.1304V21.7778C51.1304 25.7704 54.4174 29.037 58.4348 29.037H73.0435V54.4444H76.6957V25.4074L54.7826 0ZM58.4348 25.4074C56.6087 25.4074 54.7826 23.5926 54.7826 21.7778V5.44444L71.9478 25.4074H58.4348Z" fill="white"/>
<path d="M80.3478 58.0741V50.8148H84V68.963H80.3478V61.7037H3.65217V68.963H0V50.8148H3.65217V58.0741H80.3478Z" fill="#E44331"/>
<path d="M44.6818 10H18.3182C17.5902 10 17 10.5902 17 11.3182V37.6818C17 38.4098 17.5902 39 18.3182 39H44.6818C45.4098 39 46 38.4098 46 37.6818V11.3182C46 10.5902 45.4098 10 44.6818 10Z" stroke="white" stroke-width="3" stroke-linecap="round" stroke-linejoin="round"/>
<path d="M46 29.7727L39.023 22.7958C38.7758 22.5485 38.4405 22.4097 38.0909 22.4097C37.7413 22.4097 37.406 22.5485 37.1588 22.7958L29.7957 30.1588C29.5485 30.406 29.2132 30.5449 28.8636 30.5449C28.514 30.5449 28.1787 30.406 27.9315 30.1588L24.523 26.7503C24.2758 26.5031 23.9405 26.3642 23.5909 26.3642C23.2413 26.3642 22.906 26.5031 22.6588 26.7503L17 32.4091" stroke="white" stroke-width="3" stroke-linecap="round" stroke-linejoin="round"/>
<path d="M26.8864 20.5455C27.9784 20.5455 28.8636 19.6602 28.8636 18.5682C28.8636 17.4762 27.9784 16.5909 26.8864 16.5909C25.7943 16.5909 24.9091 17.4762 24.9091 18.5682C24.9091 19.6602 25.7943 20.5455 26.8864 20.5455Z" fill="white"/>
</g>
<defs>
<clipPath id="clip0">
<rect width="84" height="98" fill="white"/>
</clipPath>
</defs>
</svg>
