<svg width="69" height="98" viewBox="0 0 69 98" fill="none" xmlns="http://www.w3.org/2000/svg">
<path d="M47.2105 0H45.3947H7.26316C3.26842 0 0 3.26667 0 7.25926V90.7407C0 94.7333 3.26842 98 7.26316 98H61.7368C65.7316 98 69 94.7333 69 90.7407V25.4074L47.2105 0ZM47.2105 5.44444L64.2789 25.4074H50.8421C49.0263 25.4074 47.2105 23.5926 47.2105 21.7778V5.44444ZM65.3684 90.7407C65.3684 92.5556 63.9158 94.3704 61.7368 94.3704H7.26316C5.44737 94.3704 3.63158 92.9185 3.63158 90.7407V7.25926C3.63158 5.44444 5.08421 3.62963 7.26316 3.62963H43.5789V21.7778C43.5789 25.7704 46.8474 29.037 50.8421 29.037H65.3684V90.7407Z" fill="white"/>
<path d="M10.8947 10.8889V18.1482H14.5263V14.5185H18.1579V29.0371H21.7895V14.5185H25.421V18.1482H29.0526V10.8889H10.8947Z" fill="#E44331"/>
<path d="M58.1052 47.1852H10.8947V50.8148H58.1052V47.1852Z" fill="#E44331"/>
<path d="M58.1052 36.2963H10.8947V39.9259H58.1052V36.2963Z" fill="white"/>
<path d="M58.1052 58.0741H10.8947V61.7037H58.1052V58.0741Z" fill="white"/>
<path d="M58.1052 68.963H10.8947V72.5926H58.1052V68.963Z" fill="#E44331"/>
<path d="M58.1052 79.8518H10.8947V83.4814H58.1052V79.8518Z" fill="white"/>
</svg>
