<svg width="119" height="31" viewBox="0 0 119 31" fill="none" xmlns="http://www.w3.org/2000/svg">
<path d="M58 31H5C2.2 31 0 28.8 0 26V5C0 2.2 2.2 0 5 0H58C60.8 0 63 2.2 63 5V26C63 28.7 60.8 31 58 31Z" fill="url(#paint0_linear)"/>
<path d="M13.8 6C18 6 20.8 8.40001 20.8 12.1C20.8 15.9 17.9 18.3 13.5 18.3H9.29999V24.3H7.40002V5.89999L13.8 6ZM13.7 16.6C16.8 16.6 18.9 14.8 18.9 12.1C18.9 9.50001 16.8 7.79999 13.7 7.79999H9.29999V16.6H13.7Z" fill="white"/>
<path d="M30.7001 6C36.4001 6 40.4001 9.7 40.4001 15C40.4001 20.5 36.4001 24.3 30.7001 24.3H24.3V5.89999L30.7001 6ZM30.7001 22.6C35.2001 22.6 38.4001 19.5 38.4001 15C38.4001 10.8 35.2001 7.70001 30.7001 7.70001H26.2001V22.5L30.7001 22.6Z" fill="white"/>
<path d="M46.5 14.8H56V16.6H46.5V24.4H44.6V6H57.1V7.79999H46.5V14.8Z" fill="white"/>
<path d="M75.5 8.5C79.4 8.5 82 10.7 82 14.1C82 17.6 79.3 19.9 75.3 19.9H71.4V25.5H69.6V8.5H75.5ZM75.4 18.3C78.3 18.3 80.2 16.6 80.2 14.2C80.2 11.8 78.3 10.2 75.4 10.2H71.3V18.3H75.4Z" fill="black"/>
<path d="M87.1 19.3V25.5H85.3V8.5H91.6C95.4 8.5 98.1 10.6 98.1 13.9C98.1 16.7 96.3001 18.6 93.4001 19.1L98.8 25.4H96.6L91.3 19.2H87.1V19.3ZM91.6 17.7C94.4 17.7 96.3 16.3 96.3 13.9C96.3 11.5 94.3 10.1 91.6 10.1H87.1V17.7H91.6Z" fill="black"/>
<path d="M118.5 17C118.5 21.9 114.6 25.8 109.7 25.8C104.8 25.8 100.9 21.9 100.9 17C100.9 12.1 104.8 8.20001 109.7 8.20001C114.6 8.20001 118.5 12.1 118.5 17ZM116.7 17C116.7 13.1 113.6 9.79999 109.6 9.79999C105.7 9.79999 102.6 13 102.6 17C102.6 21 105.7 24.2 109.6 24.2C113.6 24.2 116.7 20.9 116.7 17Z" fill="black"/>
<defs>
<linearGradient id="paint0_linear" x1="-0.000375136" y1="15.5216" x2="62.9996" y2="15.4785" gradientUnits="userSpaceOnUse">
<stop stop-color="#ED3833"/>
<stop offset="1" stop-color="#B02723"/>
</linearGradient>
</defs>
</svg>
